<svg xmlns="http://www.w3.org/2000/svg" width="48.479" height="47" viewBox="0 0 48.479 47">
  <defs>
    <style>
      .cls-1 {
        fill: #1d96f3;
      }
    </style>
  </defs>
  <g id="federation-icon_画板_1_副本" data-name="federation-icon_画板 1 副本" transform="translate(0 0)">
    <path id="路径_668" data-name="路径 668" class="cls-1" d="M10.553.339a23.661,23.661,0,0,1,6.065,1.436,26.278,26.278,0,0,1-4.209,8.279A22.228,22.228,0,0,1,8.16,5.29,21.511,21.511,0,0,0,10.553.339Zm0,0" transform="translate(16.571 -0.339)"/>
    <path id="路径_669" data-name="路径 669" class="cls-1" d="M14.872,2.047A23.56,23.56,0,0,1,20.949.568,19.905,19.905,0,0,0,32.621,13.2a26.245,26.245,0,0,1,5.015-7.494A25.3,25.3,0,0,1,41.919,10.2a19.942,19.942,0,0,0-4.991,16.51,28.086,28.086,0,0,1,8.954.6,23.012,23.012,0,0,1-1.675,5.976,20.472,20.472,0,0,0-16.724,3.813c1.614,2.62,3.377,5.273,3.874,8.368a24.787,24.787,0,0,1-5.9,1.331C23.59,41.268,19.4,36.115,13.728,34.32a28.1,28.1,0,0,1-4.9,7.463A22.536,22.536,0,0,1,4.7,37.44l.031-.39A20.98,20.98,0,0,0,9.642,25.98a43.754,43.754,0,0,0-.009-5.23,29.314,29.314,0,0,1-9.016-.512,21.041,21.041,0,0,1,1.617-6.065,20.05,20.05,0,0,0,16.783-3.936,26.619,26.619,0,0,1-4.144-8.19ZM22.3,15.568a27.763,27.763,0,0,1-6.657,3.7,41.288,41.288,0,0,1,0,8.835A29.033,29.033,0,0,1,22.992,32.4l.362-.028a27.829,27.829,0,0,1,7.408-4.209,26.813,26.813,0,0,1,.092-8.9,31.384,31.384,0,0,1-7.166-4.083c-.509-.454-1.021.144-1.383.383Zm0,0" transform="translate(0.975 0.134)"/>
    <path id="路径_670" data-name="路径 670" class="cls-1" d="M5.044,20.753a27.011,27.011,0,0,1,4.267-8.187A26.784,26.784,0,0,1,13.5,17.21a29.6,29.6,0,0,0-2.3,4.828,14.007,14.007,0,0,1-6.157-1.285Z" transform="translate(10.128 24.941)"/>
    <ellipse id="椭圆_327" data-name="椭圆 327" class="cls-1" cx="3.908" cy="3.908" rx="3.908" ry="3.908" transform="translate(6.779 4.782)"/>
    <ellipse id="椭圆_328" data-name="椭圆 328" class="cls-1" cx="3.908" cy="3.908" rx="3.908" ry="3.908" transform="translate(40.663 15.457)"/>
    <ellipse id="椭圆_329" data-name="椭圆 329" class="cls-1" cx="3.908" cy="3.908" rx="3.908" ry="3.908" transform="translate(33.752 35.648)"/>
    <ellipse id="椭圆_330" data-name="椭圆 330" class="cls-1" cx="3.908" cy="3.908" rx="3.908" ry="3.908" transform="translate(0 24.485)"/>
  </g>
</svg>
