<?xml version="1.0" encoding="utf-8"?>
<!-- Generator: Adobe Illustrator 23.0.2, SVG Export Plug-In . SVG Version: 6.00 Build 0)  -->
<svg version="1.1" id="图层_1" xmlns="http://www.w3.org/2000/svg" xmlns:xlink="http://www.w3.org/1999/xlink" x="0px" y="0px"
	 viewBox="0 0 120 32" style="enable-background:new 0 0 120 32;" xml:space="preserve">
<style type="text/css">
	.st0{fill:#FFFFFF;}
	.st1{fill:#C30E18;}
	.st2{fill:#717071;}
</style>
<g>
	<g>
		<g>
			<path class="st0" d="M51.654,13.81l3.549-0.128c-0.109,0.33-0.095,0.582,0.042,0.754c0.222,0.281,0.682,0.422,1.383,0.422
				c0.523,0,0.962-0.073,1.323-0.215c0.362-0.144,0.595-0.309,0.697-0.498c0.1-0.18,0.053-0.338-0.136-0.48
				c-0.191-0.143-0.741-0.275-1.651-0.402c-1.486-0.211-2.475-0.49-2.966-0.838c-0.494-0.349-0.593-0.795-0.295-1.335
				c0.196-0.355,0.558-0.692,1.085-1.007c0.526-0.316,1.193-0.565,2-0.745c0.806-0.181,1.827-0.272,3.057-0.272
				c1.513,0,2.574,0.166,3.188,0.493c0.609,0.329,0.792,0.852,0.547,1.567l-3.507,0.12c0.078-0.312,0.012-0.539-0.204-0.679
				c-0.214-0.142-0.579-0.213-1.096-0.213c-0.425,0-0.774,0.052-1.048,0.157c-0.273,0.105-0.45,0.233-0.534,0.385
				c-0.063,0.109-0.025,0.208,0.102,0.296c0.121,0.091,0.485,0.176,1.086,0.254c1.487,0.202,2.519,0.406,3.097,0.611
				c0.574,0.207,0.937,0.461,1.085,0.766c0.145,0.304,0.114,0.648-0.092,1.023c-0.245,0.443-0.682,0.852-1.308,1.226
				c-0.627,0.375-1.368,0.658-2.228,0.85c-0.86,0.195-1.861,0.29-3.007,0.29c-2.012,0-3.28-0.227-3.803-0.679
				C51.491,15.084,51.37,14.508,51.654,13.81z"/>
		</g>
		<path class="st0" d="M115.722,8.174c-2.246,0.072-4.486,0.142-6.722,0.205l-3.525,8.306c1.212,0.031,2.423,0.066,3.628,0.101
			l1.261-2.975h2c1.474,0,2.676-0.254,3.616-0.766c0.931-0.512,1.593-1.221,1.979-2.129c0.37-0.884,0.334-1.564-0.123-2.043
			C117.447,8.466,116.739,8.234,115.722,8.174z M114.368,10.996c-0.121,0.291-0.367,0.529-0.733,0.715
			c-0.363,0.185-0.898,0.281-1.601,0.281h-0.895l0.83-1.941l1.061-0.066c0.682,0,1.108,0.099,1.27,0.294
			C114.465,10.476,114.486,10.715,114.368,10.996z"/>
		<path class="st0" d="M105.189,8.484c-3.058,0.079-6.092,0.15-9.111,0.213l-3.268,7.705c1.215,0.023,2.426,0.046,3.632,0.071
			l2.72-6.416l1.652-0.084c0.667,0,1.09,0.078,1.266,0.233c0.173,0.154,0.2,0.379,0.079,0.668c-0.086,0.198-0.236,0.371-0.453,0.521
			c-0.218,0.152-0.454,0.247-0.714,0.284c-0.511,0.081-0.851,0.123-1.018,0.123H99.72l-0.836,1.949
			c0.13,0.119,0.238,0.332,0.325,0.651l0.614,2.146c1.398,0.032,2.787,0.065,4.174,0.1l-0.537-2.105
			c-0.032-0.13-0.121-0.316-0.277-0.558c-0.148-0.241-0.278-0.398-0.379-0.471c-0.155-0.112-0.425-0.221-0.815-0.332
			c0.585-0.094,1.064-0.213,1.436-0.357c0.586-0.224,1.095-0.518,1.525-0.88c0.436-0.363,0.759-0.793,0.968-1.291
			c0.245-0.573,0.269-1.059,0.071-1.458C105.833,8.875,105.561,8.641,105.189,8.484z"/>
		<path class="st0" d="M86.01,8.872l-6.736,7.332c1.205,0.014,2.407,0.026,3.606,0.041l4.745-5.759l-0.134,5.178l-0.013,0.647
			c1.251,0.02,2.504,0.04,3.748,0.062l-0.529-7.576C89.143,8.824,87.578,8.849,86.01,8.872z"/>
		<path class="st0" d="M48.715,9.026l-1.742,4.106l-1.947-4.133c-1.386-0.013-2.769-0.025-4.148-0.04l-3.088,7.28
			c1.149-0.014,2.298-0.027,3.453-0.04l1.691-3.987l1.869,3.954c1.442-0.012,2.889-0.022,4.343-0.03l3.005-7.091
			C51.004,9.04,49.859,9.031,48.715,9.026z"/>
		<path class="st0" d="M30.987,8.824l-7.016,7.641c1.238-0.025,2.481-0.049,3.728-0.071l4.863-5.907l-0.13,5.178l-0.018,0.649
			c1.243-0.018,2.49-0.037,3.743-0.055l-0.514-7.362C34.082,8.875,32.534,8.851,30.987,8.824z"/>
		<path class="st0" d="M24.827,8.714c-3.174-0.063-6.32-0.136-9.431-0.215l-3.503,8.258c1.228-0.035,2.464-0.067,3.705-0.099
			l2.845-6.686h1.604c0.667,0,1.088,0.078,1.265,0.233c0.177,0.154,0.204,0.379,0.08,0.668c-0.083,0.198-0.234,0.371-0.452,0.521
			c-0.216,0.152-0.455,0.247-0.712,0.284c-0.514,0.081-0.854,0.123-1.019,0.123h-0.255l-0.833,1.949
			c0.129,0.119,0.236,0.332,0.324,0.651l0.622,2.172c1.368-0.033,2.742-0.063,4.123-0.091l-0.495-1.94
			c-0.029-0.13-0.121-0.316-0.275-0.558c-0.151-0.241-0.281-0.398-0.385-0.471c-0.15-0.112-0.421-0.221-0.809-0.332
			c0.582-0.094,1.062-0.213,1.436-0.357c0.583-0.224,1.094-0.518,1.525-0.88c0.433-0.363,0.757-0.793,0.97-1.291
			c0.241-0.573,0.266-1.059,0.07-1.458C25.131,9.006,24.996,8.847,24.827,8.714z"/>
		<path class="st0" d="M3.774,8.155H2.731l-0.942,2.22h3.728l-2.829,6.666C3.916,17,5.152,16.96,6.392,16.921l2.778-6.546h3.727
			l0.815-1.922C10.359,8.365,7.045,8.266,3.774,8.155z"/>
		<path class="st0" d="M81.083,9.741l0.58-0.811c-1.146,0.013-2.295,0.027-3.449,0.038l-0.517,0.773l0,0l-2.319,3.444l0.245-4.193
			l0,0l0.317-5.518l-7.687,9.717l0.251-1.417l0,0l0.481-2.736c-1.14,0.007-2.284,0.011-3.428,0.014l-0.446,3.468l-1.29,10.045
			l8.716-11.079l-0.269,4.657c1.41,0.008,2.816,0.021,4.219,0.033l4.042-5.658L81.083,9.741L81.083,9.741z"/>
		<path class="st0" d="M60,18.225c22.275,0,42.937,1.032,59.96,2.793c-16.195-2.487-37.115-3.986-59.96-3.986
			c-22.845,0-43.765,1.499-59.961,3.986C17.062,19.256,37.724,18.225,60,18.225z"/>
	</g>
	<g>
		<path class="st0" d="M27.188,25.012h-2.062v1.013h1.795v0.782h-1.795v1.643H24.17v-4.22h3.018V25.012z"/>
		<path class="st0" d="M34.409,28.45h-3.303v-4.22h3.246v0.782h-2.291v0.917h2.138v0.782h-2.138v0.993h2.348V28.45z"/>
		<path class="st0" d="M39.682,28.45h-1.375v-4.22h1.317c1.515,0.013,2.285,0.706,2.311,2.081
			C41.986,27.788,41.235,28.501,39.682,28.45z M39.606,25.012h-0.324v2.692h0.324c0.891,0.013,1.33-0.451,1.317-1.394
			C40.898,25.459,40.458,25.025,39.606,25.012z"/>
		<path class="st0" d="M49.157,28.45h-3.303v-4.22H49.1v0.782h-2.291v0.917h2.138v0.782h-2.138v0.993h2.348V28.45z"/>
		<path class="st0" d="M56.798,28.43h-1.203l-1.031-1.623H54.01v1.643h-0.955v-4.22h1.929c1.031,0.025,1.565,0.445,1.604,1.26
			c0.013,0.7-0.331,1.12-1.03,1.26L56.798,28.43z M54.832,24.974H54.01v1.127h0.821c0.509,0,0.757-0.185,0.744-0.554
			C55.601,25.153,55.353,24.961,54.832,24.974z"/>
		<path class="st0" d="M64.497,28.45h-1.05l-0.306-0.917h-1.604l-0.306,0.917h-1.032l1.566-4.22h1.146L64.497,28.45z M62.97,26.807
			l-0.534-1.451c-0.039-0.127-0.07-0.248-0.096-0.362h-0.02c-0.013,0.102-0.045,0.229-0.096,0.382l-0.477,1.432H62.97z"/>
		<path class="st0" d="M71.814,25.012h-1.356v3.438h-0.974v-3.438H68.11V24.23h3.704V25.012z"/>
		<path class="st0" d="M76.667,28.45h-0.974v-4.22h0.974V28.45z"/>
		<path class="st0" d="M84.767,26.368c-0.076,1.362-0.771,2.082-2.081,2.158c-1.324-0.076-2.024-0.796-2.101-2.158
			c0.063-1.412,0.764-2.145,2.101-2.195C83.983,24.249,84.678,24.981,84.767,26.368z M83.717,26.368
			c-0.026-0.878-0.376-1.336-1.051-1.374c-0.688,0.038-1.05,0.496-1.088,1.374c0.025,0.866,0.382,1.318,1.069,1.356
			C83.335,27.699,83.69,27.247,83.717,26.368z"/>
		<path class="st0" d="M92.428,28.45h-0.975l-1.661-2.636c-0.114-0.19-0.19-0.324-0.229-0.4c0.013,0.19,0.019,0.433,0.019,0.726
			v2.311h-0.897v-4.22h1.031l1.604,2.597c0.114,0.165,0.19,0.306,0.229,0.42v-0.02c-0.013-0.14-0.019-0.355-0.019-0.648V24.23h0.897
			V28.45z"/>
	</g>
</g>
</svg>
