<?xml version="1.0" encoding="utf-8"?>
<!-- Generated by IcoMoon.io -->
<!DOCTYPE svg PUBLIC "-//W3C//DTD SVG 1.1//EN" "http://www.w3.org/Graphics/SVG/1.1/DTD/svg11.dtd">
<svg version="1.1" xmlns="http://www.w3.org/2000/svg" xmlns:xlink="http://www.w3.org/1999/xlink" viewBox="0 0 32 32">
<path d="M25.454 13.792c0.922-0.91 1.494-2.172 1.494-3.57 0-2.774-2.248-5.024-5.024-5.024-0.502 0-0.978 0.096-1.436 0.234v0c0.438 0.358 0.836 0.754 1.194 1.194 0.044 0.052 0.088 0.104 0.13 0.158 0.024 0.030 0.042 0.064 0.066 0.094 0.016 0 0.030-0.004 0.046-0.004 1.85 0 3.348 1.5 3.348 3.348 0 1.294-0.742 2.404-1.818 2.962-0.026 0.16-0.020 0.328-0.054 0.486 0 0.014-0.008 0.030-0.012 0.046-0.124 0.558-0.306 1.092-0.536 1.602 0.248-0.028 0.492-0.076 0.748-0.076 3.7 0 6.698 2.998 6.698 6.698 0 0.58-0.084 1.14-0.226 1.674h1.71c0.112-0.542 0.188-1.098 0.188-1.674 0.002-3.984-2.788-7.302-6.516-8.148zM7.612 15.336c-0.306-0.678-0.51-1.402-0.628-2.162-1.066-0.56-1.802-1.664-1.802-2.954 0-1.85 1.5-3.348 3.348-3.348 0.012 0 0.024 0.004 0.036 0.004 0.406-0.538 0.878-1.018 1.402-1.444-0.46-0.138-0.936-0.234-1.438-0.234-2.774 0-5.024 2.248-5.024 5.024 0 1.612 0.772 3.030 1.952 3.948-3.1 1.226-5.3 4.236-5.3 7.772 0 0.576 0.076 1.132 0.188 1.674h1.732c-0.142-0.538-0.244-1.090-0.244-1.674-0.002-3.386 2.518-6.154 5.778-6.606zM20.048 16.528c1.156-1.204 1.876-2.832 1.876-4.632 0-3.7-2.998-6.698-6.698-6.698-3.698 0-6.698 2.998-6.698 6.698 0 1.802 0.72 3.428 1.876 4.632-3.1 1.71-5.226 4.972-5.226 8.762 0 0.574 0.076 1.128 0.168 1.674h3.416c-0.14-0.538-0.236-1.092-0.236-1.674 0-3.698 2.998-6.698 6.698-6.698s6.698 2.998 6.698 6.698c0 0.582-0.098 1.136-0.236 1.674h3.416c0.092-0.548 0.168-1.1 0.168-1.674 0.004-3.792-2.12-7.052-5.222-8.762zM15.228 15.244c-1.85 0-3.348-1.5-3.348-3.348 0-1.85 1.5-3.348 3.348-3.348s3.348 1.5 3.348 3.348c0 1.848-1.5 3.348-3.348 3.348z"></path>
</svg>
