<?xml version="1.0" encoding="utf-8"?>
<!-- Generator: Adobe Illustrator 23.0.2, SVG Export Plug-In . SVG Version: 6.00 Build 0)  -->
<svg version="1.1" id="图层_1" xmlns="http://www.w3.org/2000/svg" xmlns:xlink="http://www.w3.org/1999/xlink" x="0px" y="0px"
	 viewBox="0 0 16 16" style="enable-background:new 0 0 16 16;" xml:space="preserve">
<style type="text/css">
	.st0{fill:#4487D0;}
	.st1{fill-rule:evenodd;clip-rule:evenodd;fill:#778CA2;}
	.st2{fill:#2CC5DD;}
	.st3{fill:none;}
	.st4{fill:#B1DCFF;}
	.st5{fill:#E6F7FF;}
	.st6{fill:#98CCFF;}
	.st7{opacity:0.3;fill:#1890FF;}
	.st8{fill:#80BEFF;}
	.st9{fill:#F2F8FF;}
	.st10{fill:#8295B7;}
	.st11{fill:#1D96F3;}
	.st12{fill:#099DFF;}
	.st13{fill:#DDE3E9;}
	.st14{fill:#FE4D74;}
	.st15{fill:#8596AC;}
	.st16{fill:#868E97;}
	.st17{fill:#778CA2;}
	.st18{opacity:0.6;}
	.st19{fill:#46C779;}
</style>
<g id="modified-pass-01_1_" transform="translate(-2.087 -2.313)">
	<path id="联合_149_1_" class="st11" d="M4.423,17.315c-0.705,0.03-1.301-0.515-1.336-1.219V8.585
		c0.034-0.705,0.631-1.25,1.336-1.22h1.908v-0.7c0.12-1.959,1.797-3.454,3.756-3.35c1.96-0.105,3.637,1.392,3.756,3.351v0.7h1.908
		c0.705-0.032,1.303,0.514,1.336,1.219v7.51c-0.033,0.705-0.631,1.251-1.336,1.22H4.423z M8.813,11.065v2.55
		c0.031,0.673,0.601,1.195,1.274,1.166c0.674,0.029,1.244-0.492,1.275-1.166v-2.549c-0.031-0.673-0.602-1.194-1.275-1.164
		c-0.672-0.029-1.242,0.492-1.273,1.164L8.813,11.065z M12.593,7.365v-0.7c-0.08-1.306-1.199-2.304-2.506-2.233
		c-1.305-0.067-2.421,0.93-2.5,2.234v0.7L12.593,7.365z"/>
</g>
</svg>
