<?xml version="1.0" encoding="utf-8"?>
<!-- Generator: Adobe Illustrator 23.0.2, SVG Export Plug-In . SVG Version: 6.00 Build 0)  -->
<svg version="1.1" id="图层_1" xmlns="http://www.w3.org/2000/svg" xmlns:xlink="http://www.w3.org/1999/xlink" x="0px" y="0px"
	 viewBox="0 0 16 16" style="enable-background:new 0 0 16 16;" xml:space="preserve">
<style type="text/css">
	.st0{fill:#4487D0;}
	.st1{fill-rule:evenodd;clip-rule:evenodd;fill:#778CA2;}
	.st2{fill:#2CC5DD;}
	.st3{fill:none;}
	.st4{fill:#B1DCFF;}
	.st5{fill:#E6F7FF;}
	.st6{fill:#98CCFF;}
	.st7{opacity:0.3;fill:#1890FF;}
	.st8{fill:#80BEFF;}
	.st9{fill:#F2F8FF;}
	.st10{fill:#8295B7;}
	.st11{fill:#1D96F3;}
	.st12{fill:#099DFF;}
	.st13{fill:#DDE3E9;}
	.st14{fill:#FE4D74;}
	.st15{fill:#8596AC;}
	.st16{fill:#868E97;}
	.st17{fill:#778CA2;}
	.st18{opacity:0.6;}
	.st19{fill:#46C779;}
</style>
<g>
	<path class="st11" d="M13.385,3.154h-1.615V1.538C11.769,1.241,11.528,1,11.231,1H2.615C2.318,1,2.077,1.241,2.077,1.538v10.769
		c0,0.298,0.241,0.538,0.538,0.538h1.615v1.615C4.231,14.759,4.472,15,4.769,15h8.615c0.298,0,0.538-0.241,0.538-0.538V3.692
		C13.923,3.395,13.682,3.154,13.385,3.154z M3.154,11.769V2.077h7.538v1.077H4.769c-0.298,0-0.538,0.241-0.538,0.538v8.077H3.154z
		 M12.846,13.923H5.308V4.231h7.538V13.923z"/>
	<path class="st11" d="M6.923,9.615h1.615v1.615c0,0.298,0.241,0.538,0.538,0.538c0.298,0,0.538-0.241,0.538-0.538V9.615h1.615
		c0.298,0,0.538-0.241,0.538-0.538c0-0.298-0.241-0.538-0.538-0.538H9.615V6.923c0-0.298-0.241-0.538-0.538-0.538
		c-0.298,0-0.538,0.241-0.538,0.538v1.615H6.923c-0.298,0-0.538,0.241-0.538,0.538C6.385,9.375,6.625,9.615,6.923,9.615z"/>
</g>
</svg>
