<?xml version="1.0" encoding="utf-8"?>
<!-- Generator: Adobe Illustrator 23.0.2, SVG Export Plug-In . SVG Version: 6.00 Build 0)  -->
<svg version="1.1" id="图层_1" xmlns="http://www.w3.org/2000/svg" xmlns:xlink="http://www.w3.org/1999/xlink" x="0px" y="0px"
	 viewBox="0 0 16 16" style="enable-background:new 0 0 16 16;" xml:space="preserve">
<style type="text/css">
	.st0{fill:#4487D0;}
	.st1{fill-rule:evenodd;clip-rule:evenodd;fill:#778CA2;}
	.st2{fill:#2CC5DD;}
	.st3{fill:none;}
	.st4{fill:#B1DCFF;}
	.st5{fill:#E6F7FF;}
	.st6{fill:#98CCFF;}
	.st7{opacity:0.3;fill:#1890FF;}
	.st8{fill:#80BEFF;}
	.st9{fill:#F2F8FF;}
	.st10{fill:#8295B7;}
	.st11{fill:#1D96F3;}
	.st12{fill:#099DFF;}
	.st13{fill:#DDE3E9;}
	.st14{fill:#FE4D74;}
	.st15{fill:#8596AC;}
	.st16{fill:#868E97;}
	.st17{fill:#778CA2;}
	.st18{opacity:0.6;}
	.st19{fill:#46C779;}
</style>
<g>
	<path class="st4" d="M3.252,8.615C3.208,8.172,3.185,7.724,3.185,7.27c0-2.423,0.64-4.695,1.755-6.662C2.04,1.809,0,4.666,0,8
		c0,0.47,0.043,0.929,0.12,1.377C1.114,9.004,2.163,8.745,3.252,8.615z"/>
	<path class="st5" d="M3.252,8.615c0.534-0.064,1.076-0.101,1.627-0.101c0.089,0,0.177,0.005,0.265,0.007
		C5.137,8.466,5.132,8.407,5.122,8.34c0,0-0.181-1.201,0.204-1.179c0,0,0.249,0,0.181-0.272c-0.023-0.453-0.023-1.337,0-1.655
		C5.53,4.94,5.756,4.101,6.391,3.988C7.026,3.875,6.776,3.92,6.98,3.897c0.204-0.045,0.159-0.159,0.544-0.159L8.34,3.58
		c0.408,0,0.657,0.657,0.861,0.68c0.204,0.023,0.249-0.113,0.68-0.023c0.635,0.136,0.544,0.997,0.567,1.315
		c0.023,0.295,0.091,1.133,0.023,1.405c-0.045,0.272,0.136,0.249,0.136,0.249c0.453,0,0.317,1.179,0.317,1.179
		c-0.068,0.295-0.249,0.34-0.68,0.612c-0.06,0.185-0.155,0.358-0.265,0.514c1.733,0.706,3.286,1.76,4.574,3.076
		C15.464,11.288,16,9.707,16,8c0-4.418-3.582-8-8-8C6.916,0,5.882,0.217,4.94,0.608C3.824,2.575,3.185,4.847,3.185,7.27
		C3.185,7.724,3.208,8.172,3.252,8.615z"/>
	<path class="st6" d="M3.252,8.615c0.534-0.064,1.076-0.101,1.627-0.101c0.089,0,0.177,0.005,0.265,0.007
		C5.137,8.466,5.132,8.407,5.122,8.34c0,0-0.181-1.201,0.204-1.179c0,0,0.249,0,0.181-0.272c-0.023-0.453-0.023-1.337,0-1.655
		C5.53,4.94,5.756,4.101,6.391,3.988C7.026,3.875,6.776,3.92,6.98,3.897c0.204-0.045,0.159-0.159,0.544-0.159L8.34,3.58
		c0.408,0,0.657,0.657,0.861,0.68c0.204,0.023,0.249-0.113,0.68-0.023c0.635,0.136,0.544,0.997,0.567,1.315
		c0.023,0.295,0.091,1.133,0.023,1.405c-0.045,0.272,0.136,0.249,0.136,0.249c0.453,0,0.317,1.179,0.317,1.179
		c-0.068,0.295-0.249,0.34-0.68,0.612c-0.06,0.185-0.155,0.358-0.265,0.514c1.733,0.706,3.286,1.76,4.574,3.076
		C15.464,11.288,16,9.707,16,8c0-4.418-3.582-8-8-8C6.916,0,5.882,0.217,4.94,0.608C3.824,2.575,3.185,4.847,3.185,7.27
		C3.185,7.724,3.208,8.172,3.252,8.615z"/>
	<path class="st5" d="M4.224,12.475c-0.504-1.208-0.838-2.505-0.972-3.86C2.163,8.745,1.114,9.004,0.12,9.377
		c0.327,1.884,1.311,3.541,2.71,4.726c0.046-0.318,0.122-0.611,0.251-0.731C3.317,13.136,3.454,12.763,4.224,12.475z"/>
	<path class="st6" d="M4.224,12.475c-0.504-1.208-0.838-2.505-0.972-3.86C2.163,8.745,1.114,9.004,0.12,9.377
		c0.327,1.884,1.311,3.541,2.71,4.726c0.046-0.318,0.122-0.611,0.251-0.731C3.317,13.136,3.454,12.763,4.224,12.475z"/>
	<path class="st5" d="M9.979,9.511c-0.348,0.495-0.845,0.823-0.845,0.823v0.793c0,0.068-0.091,0.861,1.383,1.088
		c1.745,0.249,2.04,0.839,2.357,1.156c0.123,0.132,0.205,0.438,0.259,0.763c0.538-0.451,1.015-0.972,1.419-1.548
		C13.265,11.271,11.712,10.217,9.979,9.511z"/>
	<path class="st7" d="M9.979,9.511c-0.348,0.495-0.845,0.823-0.845,0.823v0.793c0,0.068-0.091,0.861,1.383,1.088
		c1.745,0.249,2.04,0.839,2.357,1.156c0.123,0.132,0.205,0.438,0.259,0.763c0.538-0.451,1.015-0.972,1.419-1.548
		C13.265,11.271,11.712,10.217,9.979,9.511z"/>
	<path class="st8" d="M9.979,9.511c-0.348,0.495-0.845,0.823-0.845,0.823v0.793c0,0.068-0.091,0.861,1.383,1.088
		c1.745,0.249,2.04,0.839,2.357,1.156c0.123,0.132,0.205,0.438,0.259,0.763c0.538-0.451,1.015-0.972,1.419-1.548
		C13.265,11.271,11.712,10.217,9.979,9.511z"/>
	<path class="st5" d="M5.28,12.216c1.745-0.272,1.541-1.201,1.609-1.179c-0.023-0.363-0.045-0.861-0.045-0.861
		S5.938,9.79,5.666,9.02C5.227,8.844,5.169,8.709,5.144,8.521C5.055,8.519,4.968,8.514,4.879,8.514
		c-0.551,0-1.093,0.037-1.627,0.101c0.134,1.356,0.468,2.652,0.972,3.86C4.49,12.375,4.831,12.286,5.28,12.216z"/>
	<path class="st7" d="M5.28,12.216c1.745-0.272,1.541-1.201,1.609-1.179c-0.023-0.363-0.045-0.861-0.045-0.861
		S5.938,9.79,5.666,9.02C5.227,8.844,5.169,8.709,5.144,8.521C5.055,8.519,4.968,8.514,4.879,8.514
		c-0.551,0-1.093,0.037-1.627,0.101c0.134,1.356,0.468,2.652,0.972,3.86C4.49,12.375,4.831,12.286,5.28,12.216z"/>
	<path class="st8" d="M5.28,12.216c1.745-0.272,1.541-1.201,1.609-1.179c-0.023-0.363-0.045-0.861-0.045-0.861
		S5.938,9.79,5.666,9.02C5.227,8.844,5.169,8.709,5.144,8.521C5.055,8.519,4.968,8.514,4.879,8.514
		c-0.551,0-1.093,0.037-1.627,0.101c0.134,1.356,0.468,2.652,0.972,3.86C4.49,12.375,4.831,12.286,5.28,12.216z"/>
	<path class="st9" d="M10.244,8.997c0.431-0.272,0.612-0.317,0.68-0.612c0,0,0.136-1.179-0.317-1.179c0,0-0.181,0.023-0.136-0.249
		c0.068-0.272,0-1.111-0.023-1.405c-0.023-0.317,0.068-1.179-0.567-1.315C9.451,4.147,9.405,4.283,9.201,4.26
		C8.997,4.237,8.748,3.58,8.34,3.58L7.524,3.739c-0.385,0-0.34,0.113-0.544,0.159C6.776,3.92,7.026,3.875,6.391,3.988
		C5.756,4.101,5.53,4.94,5.507,5.235c-0.023,0.317-0.023,1.201,0,1.655c0.068,0.272-0.181,0.272-0.181,0.272
		C4.94,7.139,5.122,8.34,5.122,8.34c0.01,0.067,0.015,0.126,0.022,0.181c1.708,0.033,3.338,0.381,4.835,0.991
		C10.089,9.355,10.184,9.182,10.244,8.997z"/>
	<path class="st9" d="M4.224,12.475c-0.769,0.288-0.906,0.661-1.142,0.897c-0.129,0.12-0.206,0.414-0.251,0.731
		c0.959,0.813,2.112,1.404,3.381,1.694C5.399,14.797,4.727,13.681,4.224,12.475z"/>
	<path class="st9" d="M10.516,12.216c-1.473-0.227-1.383-1.02-1.383-1.088v-0.793c0,0,0.497-0.328,0.845-0.823
		c-1.497-0.61-3.127-0.958-4.835-0.991C5.169,8.709,5.227,8.844,5.666,9.02c0.272,0.771,1.179,1.156,1.179,1.156
		s0.023,0.499,0.045,0.861c-0.068-0.023,0.136,0.907-1.609,1.179c-0.449,0.07-0.79,0.16-1.057,0.259
		c0.503,1.206,1.176,2.322,1.988,3.322C6.787,15.928,7.385,16,8,16c1.954,0,3.744-0.701,5.133-1.865
		c-0.054-0.325-0.136-0.631-0.259-0.763C12.556,13.054,12.261,12.465,10.516,12.216z"/>
</g>
</svg>
