<?xml version="1.0" encoding="utf-8"?>
<!-- Generator: Adobe Illustrator 23.0.2, SVG Export Plug-In . SVG Version: 6.00 Build 0)  -->
<svg version="1.1" id="图层_1" xmlns="http://www.w3.org/2000/svg" xmlns:xlink="http://www.w3.org/1999/xlink" x="0px" y="0px"
	 viewBox="0 0 16 16" style="enable-background:new 0 0 16 16;" xml:space="preserve">
<style type="text/css">
	.st0{fill:#4487D0;}
	.st1{fill-rule:evenodd;clip-rule:evenodd;fill:#778CA2;}
	.st2{fill:#2CC5DD;}
	.st3{fill:none;}
	.st4{fill:#B1DCFF;}
	.st5{fill:#E6F7FF;}
	.st6{fill:#98CCFF;}
	.st7{opacity:0.3;fill:#1890FF;}
	.st8{fill:#80BEFF;}
	.st9{fill:#F2F8FF;}
	.st10{fill:#8295B7;}
	.st11{fill:#1D96F3;}
	.st12{fill:#099DFF;}
	.st13{fill:#DDE3E9;}
	.st14{fill:#FE4D74;}
	.st15{fill:#8596AC;}
	.st16{fill:#868E97;}
	.st17{fill:#778CA2;}
	.st18{opacity:0.6;}
	.st19{fill:#46C779;}
</style>
<g>
	<g>
		<path class="st0" d="M8.002,3.338c-1.303,0-2.359,1.055-2.359,2.359c0,1.303,1.055,2.359,2.359,2.359
			c1.301,0,2.359-1.055,2.359-2.359S9.303,3.338,8.002,3.338L8.002,3.338z M8,0C3.582,0,0,3.582,0,8s3.582,8,8,8s8-3.582,8-8
			S12.418,0,8,0L8,0z M12.129,12.772c-0.172-0.02-0.356-0.295-0.356-0.295C11.459,10.468,9.892,8.94,8.002,8.94
			c-1.892,0-3.459,1.528-3.771,3.537c0,0-0.072,0.272-0.356,0.295c-0.662,0.055-0.582-0.295-0.582-0.295
			c0.061-1.845,1.247-3.414,2.915-4.08c-0.874-0.582-1.45-1.573-1.45-2.701c0-1.792,1.452-3.244,3.244-3.244
			s3.242,1.452,3.242,3.244c0,1.128-0.576,2.12-1.45,2.701c1.669,0.666,2.855,2.235,2.915,4.08
			C12.711,12.477,12.67,12.832,12.129,12.772L12.129,12.772z"/>
	</g>
</g>
</svg>
