<?xml version="1.0" encoding="utf-8"?>
<!-- Generator: Adobe Illustrator 23.0.2, SVG Export Plug-In . SVG Version: 6.00 Build 0)  -->
<svg version="1.1" id="图层_1" xmlns="http://www.w3.org/2000/svg" xmlns:xlink="http://www.w3.org/1999/xlink" x="0px" y="0px"
	 viewBox="0 0 24 24" style="enable-background:new 0 0 24 24;" xml:space="preserve">
<style type="text/css">
	.st0{fill:#4487D0;}
	.st1{fill-rule:evenodd;clip-rule:evenodd;fill:#778CA2;}
	.st2{fill:#2CC5DD;}
	.st3{fill:none;}
	.st4{fill:#B1DCFF;}
	.st5{fill:#E6F7FF;}
	.st6{fill:#98CCFF;}
	.st7{opacity:0.3;fill:#1890FF;}
	.st8{fill:#80BEFF;}
	.st9{fill:#F2F8FF;}
	.st10{fill:#8295B7;}
	.st11{fill:#1D96F3;}
	.st12{fill:#099DFF;}
	.st13{fill:#DDE3E9;}
	.st14{fill:#FE4D74;}
	.st15{fill:#8596AC;}
	.st16{fill:#868E97;}
	.st17{fill:#778CA2;}
	.st18{opacity:0.6;}
	.st19{fill:#46C779;}
</style>
<path id="earth_1_" class="st10" d="M24,11.997C24.004,5.375,18.634,0.004,12.007,0C5.379-0.004,0.004,5.361,0,11.984
	c-0.003,6.048,4.502,11.152,10.508,11.904c0.404,0.078,0.814,0.116,1.225,0.112c0.132,0,0.263-0.008,0.394-0.025
	C18.702,23.911,23.999,18.567,24,11.997z M22.284,12.166c-0.034-0.589-0.112-1.174-0.234-1.752c0.012-0.2,0.014-0.4,0.01-0.574
	c0.151,0.709,0.227,1.432,0.226,2.156c0,0.057,0,0.113,0,0.17L22.284,12.166z M1.714,11.997c-0.001-0.711,0.072-1.421,0.219-2.117
	c0.418,0.432,1.107,0.444,1.54,0.026c0.082-0.079,0.152-0.171,0.205-0.272c0.458,0.271,1.07,0.323,1.07,0.864
	c0,1.799,0.064,3.721,1.7,3.746c0.621,0.255,1.101,0.765,1.32,1.399c0.142,0.369,0.7,0,1.32,0c0.31,0,0,0.519,0,1.64
	s2.41,2.832,2.41,2.832c-0.015,0.606,0.012,1.212,0.081,1.815c-0.461-0.018-0.923,0.045-1.362,0.187
	C5.301,21.252,1.715,16.985,1.714,11.997z M14.533,21.95c-0.055-0.259-0.286-0.4-0.714-0.29c0.341-1.443,0.506-2.254,1.216-2.867
	c0.451-0.279,0.591-0.871,0.311-1.322c-0.204-0.329-0.586-0.504-0.969-0.443c-0.615,0.1-0.23-0.758-0.777-0.805
	c-0.547-0.047-1.267-1.137-2.058-1.515c-0.417-0.194-0.83-0.727-1.476-0.752c-0.572-0.022-1.409,0.484-1.409,0.094
	c-0.009-0.838-0.06-1.675-0.154-2.508c-0.022-0.289-0.187-0.1,0.586-0.077c0.42,0.01,0.216-0.846,0.633-0.879
	c0.417-0.033,1.386,0.384,1.634,0.217c0.231-0.154,1.7,3.845,1.7,0.661c0-0.378-0.2-1.034,0-1.393
	c0.562-0.866,1.043-1.782,1.436-2.737c-0.457-0.148-0.95-0.138-1.4,0.03c-0.2,0.067,0.065,0.388-0.227,0.456
	c-1.1,0.253-2.07-0.3-1.73-0.812s1.608-0.232,1.718-1.291c0.064-0.608,0.117-1.313,0.151-1.836c1.478,0.23,1.316-1.916-0.883-2.147
	c4.336,0.049,8.176,2.81,9.6,6.902c-0.067-0.064-0.154-0.104-0.246-0.113c-0.664-1.66-2.276-0.459-1.73,1.005
	c-2.933,2.249-2.181,3.822-1.217,4.72c0.501,0.509,0.939,1.076,1.305,1.69c-0.344,0.999,1.261,0.6,2.052-1.099
	c-1.014,3.504-3.812,6.209-7.35,7.106L14.533,21.95z"/>
</svg>
