<?xml version="1.0" encoding="utf-8"?>
<!-- Generator: Adobe Illustrator 23.0.3, SVG Export Plug-In . SVG Version: 6.00 Build 0)  -->
<svg version="1.1" id="图层_1" xmlns="http://www.w3.org/2000/svg" xmlns:xlink="http://www.w3.org/1999/xlink" x="0px" y="0px"
	 viewBox="0 0 16 16" style="enable-background:new 0 0 16 16;" xml:space="preserve">
<style type="text/css">
	.st0{fill:none;}
	.st1{fill:#1D96F3;}
</style>
<path class="st0" d="M13.9,10V6.2c0-0.5-0.3-1-0.7-1.2L9.6,3C9.3,3.4,8.7,3.7,8.1,3.7C7.5,3.7,7,3.4,6.7,3L3.1,5
	C2.6,5.2,2.4,5.7,2.4,6.2v3.9c0.8,0.2,1.4,0.9,1.4,1.8c0,0.3-0.1,0.5-0.2,0.8l3.9,2.2c0.4,0.2,1,0.2,1.4,0l3.7-2.1
	c-0.2-0.3-0.2-0.6-0.2-0.9C12.3,10.9,13,10.1,13.9,10z"/>
<path class="st1" d="M14.9,10.2v-4c0-0.8-0.5-1.6-1.2-2.1L10,2c0-0.1,0-0.1,0-0.2C10,0.8,9.2,0,8.1,0c-1,0-1.9,0.8-1.9,1.8
	c0,0.1,0,0.1,0,0.2L2.6,4.1C1.8,4.6,1.4,5.4,1.4,6.2v3.9C0.6,10.3,0,11,0,11.9c0,1,0.8,1.8,1.9,1.8c0.4,0,0.7-0.1,1-0.3l4,2.3
	C7.3,15.9,7.7,16,8.1,16c0.4,0,0.8-0.1,1.2-0.3l3.9-2.2c0.3,0.1,0.6,0.2,0.9,0.2c1,0,1.9-0.8,1.9-1.8C16,11.1,15.6,10.5,14.9,10.2z
	 M7.3,1.5C7.5,1.2,7.8,1,8.1,1c0.4,0,0.7,0.2,0.8,0.5C9,1.6,9,1.7,9,1.8c0,0.3-0.1,0.5-0.3,0.6C8.6,2.6,8.4,2.7,8.1,2.7
	c-0.2,0-0.4-0.1-0.6-0.2C7.4,2.3,7.3,2.1,7.3,1.8C7.3,1.7,7.3,1.6,7.3,1.5z M9.8,8.2c0,0.9-0.7,1.6-1.6,1.6S6.5,9.1,6.5,8.2
	s0.7-1.6,1.6-1.6S9.8,7.3,9.8,8.2z M2.7,12c-0.1,0.4-0.4,0.6-0.7,0.7c0,0-0.1,0-0.1,0c-0.5,0-0.9-0.4-0.9-0.9c0-0.3,0.2-0.5,0.4-0.7
	C1.5,11.1,1.7,11,1.9,11c0.2,0,0.4,0.1,0.5,0.2c0.2,0.2,0.4,0.4,0.4,0.7C2.7,11.9,2.7,12,2.7,12z M2.4,10.1V6.2c0-0.5,0.3-1,0.7-1.2
	l3.6-2c0.2,0.3,0.6,0.5,1,0.6v2.1C6.4,5.9,5.5,7,5.5,8.2c0,0.2,0,0.4,0.1,0.6l-2.4,1.7C2.9,10.3,2.7,10.2,2.4,10.1z M8.8,14.8
	c-0.4,0.2-1,0.2-1.4,0l-3.9-2.2c0.1-0.2,0.2-0.5,0.2-0.8c0-0.2,0-0.3-0.1-0.5L6,9.7c0.5,0.7,1.3,1.1,2.1,1.1c0.8,0,1.5-0.4,2-1
	l2.2,1.5c0,0.2-0.1,0.3-0.1,0.5c0,0.3,0.1,0.6,0.2,0.9L8.8,14.8z M12.8,10.5L10.6,9c0.1-0.2,0.1-0.5,0.1-0.8c0-1.3-0.9-2.3-2.1-2.5
	V3.6C9,3.5,9.4,3.3,9.6,3l3.6,2c0.4,0.2,0.7,0.7,0.7,1.2V10C13.5,10.1,13.1,10.3,12.8,10.5z M14.3,12.7c-0.1,0-0.1,0-0.2,0
	c-0.3,0-0.6-0.2-0.8-0.5c-0.1-0.1-0.1-0.2-0.1-0.4c0-0.4,0.3-0.7,0.6-0.8c0.1,0,0.1,0,0.2,0c0.3,0,0.6,0.2,0.7,0.4
	c0.1,0.1,0.1,0.3,0.1,0.4C15,12.3,14.7,12.6,14.3,12.7z"/>
</svg>
