<?xml version="1.0" encoding="utf-8"?>
<!-- Generator: Adobe Illustrator 23.0.2, SVG Export Plug-In . SVG Version: 6.00 Build 0)  -->
<svg version="1.1" id="图层_1" xmlns="http://www.w3.org/2000/svg" xmlns:xlink="http://www.w3.org/1999/xlink" x="0px" y="0px"
	 viewBox="0 0 16 16" style="enable-background:new 0 0 16 16;" xml:space="preserve">
<style type="text/css">
	.st0{fill:#FFFFFF;}
	.st1{fill:#0F6CA8;}
	.st2{fill:none;}
	.st3{fill-rule:evenodd;clip-rule:evenodd;fill:#0071BC;}
	.st4{fill:#0071BC;}
	.st5{opacity:0.5;fill:#0071BC;}
	.st6{fill:none;stroke:#000000;stroke-miterlimit:10;}
	.st7{fill:#FFFFFF;stroke:#000000;stroke-miterlimit:10;}
</style>
<g>
	<path class="st2" d="M13.91,10.032V6.196c0-0.494-0.269-0.954-0.704-1.2L9.618,2.957C9.276,3.395,8.744,3.682,8.14,3.682
		c-0.603,0-1.135-0.287-1.477-0.725L3.076,4.996c-0.435,0.247-0.705,0.707-0.705,1.2v3.89c0.787,0.217,1.37,0.922,1.37,1.765
		c0,0.278-0.068,0.539-0.18,0.776l3.876,2.202c0.435,0.247,0.974,0.247,1.408,0l3.661-2.08c-0.153-0.267-0.248-0.57-0.248-0.898
		C12.259,10.91,12.983,10.141,13.91,10.032z"/>
	<path class="st1" d="M14.912,10.184V6.196c0-0.846-0.462-1.633-1.205-2.055l-3.715-2.11c0.007-0.063,0.02-0.125,0.02-0.19
		C10.012,0.826,9.172,0,8.14,0C7.109,0,6.27,0.826,6.27,1.841c0,0.065,0.013,0.127,0.02,0.19l-3.715,2.11
		c-0.744,0.422-1.206,1.21-1.206,2.055v3.89C0.582,10.303,0,11.008,0,11.851c0,1.015,0.839,1.841,1.87,1.841
		c0.379,0,0.73-0.113,1.025-0.304l4.04,2.295C7.307,15.894,7.724,16,8.14,16c0.417,0,0.834-0.106,1.206-0.317l3.904-2.218
		c0.264,0.14,0.56,0.226,0.88,0.226c1.032,0,1.87-0.826,1.87-1.841C16,11.112,15.552,10.477,14.912,10.184z M7.349,1.496
		c0.135-0.299,0.438-0.51,0.791-0.51c0.355,0,0.658,0.211,0.793,0.511c0.048,0.106,0.076,0.221,0.076,0.344
		c0,0.25-0.114,0.471-0.289,0.627C8.566,2.606,8.365,2.696,8.14,2.696c-0.225,0-0.425-0.09-0.579-0.228
		C7.386,2.311,7.272,2.091,7.272,1.841C7.272,1.718,7.301,1.602,7.349,1.496z M9.774,8.226c0,0.886-0.733,1.607-1.633,1.607
		c-0.9,0-1.632-0.721-1.632-1.607c0-0.886,0.732-1.607,1.632-1.607C9.041,6.619,9.774,7.34,9.774,8.226z M2.703,12.027
		c-0.078,0.353-0.367,0.618-0.738,0.66c-0.033,0.004-0.061,0.019-0.095,0.019c-0.479,0-0.868-0.383-0.868-0.855
		c0-0.285,0.152-0.525,0.37-0.681c0.143-0.102,0.309-0.174,0.498-0.174c0.192,0,0.36,0.074,0.504,0.177
		c0.216,0.156,0.365,0.395,0.365,0.677C2.739,11.914,2.716,11.969,2.703,12.027z M2.371,10.086v-3.89c0-0.494,0.27-0.954,0.705-1.2
		l3.588-2.038c0.243,0.311,0.584,0.539,0.976,0.649v2.076C6.426,5.914,5.506,6.965,5.506,8.226c0,0.204,0.03,0.401,0.076,0.592
		l-2.446,1.717C2.917,10.334,2.667,10.167,2.371,10.086z M8.845,14.829c-0.435,0.247-0.974,0.247-1.408,0l-3.876-2.202
		c0.113-0.237,0.18-0.498,0.18-0.776c0-0.166-0.039-0.321-0.081-0.473l2.345-1.645c0.479,0.655,1.255,1.087,2.136,1.087
		c0.821,0,1.547-0.379,2.031-0.961l2.16,1.515c-0.042,0.153-0.072,0.311-0.072,0.477c0,0.328,0.095,0.631,0.248,0.898L8.845,14.829z
		 M12.849,10.527l-2.201-1.545c0.075-0.241,0.128-0.491,0.128-0.756c0-1.261-0.92-2.312-2.134-2.544V3.607
		c0.392-0.11,0.733-0.339,0.976-0.65l3.588,2.038c0.435,0.247,0.704,0.706,0.704,1.2v3.836C13.5,10.08,13.135,10.263,12.849,10.527z
		 M14.333,12.665c-0.067,0.016-0.131,0.041-0.203,0.041c-0.338,0-0.623-0.196-0.767-0.473c-0.06-0.116-0.102-0.242-0.102-0.381
		c0-0.395,0.279-0.713,0.649-0.811c0.072-0.019,0.142-0.044,0.22-0.044c0.323,0,0.594,0.182,0.743,0.44
		c0.072,0.125,0.125,0.261,0.125,0.415C14.998,12.252,14.711,12.573,14.333,12.665z"/>
</g>
</svg>
