<?xml version="1.0" encoding="utf-8"?>
<!-- Generator: Adobe Illustrator 23.0.2, SVG Export Plug-In . SVG Version: 6.00 Build 0)  -->
<svg version="1.1" id="图层_1" xmlns="http://www.w3.org/2000/svg" xmlns:xlink="http://www.w3.org/1999/xlink" x="0px" y="0px"
	 viewBox="0 0 16 16" style="enable-background:new 0 0 16 16;" xml:space="preserve">
<style type="text/css">
	.st0{fill:#4487D0;}
	.st1{fill-rule:evenodd;clip-rule:evenodd;fill:#778CA2;}
	.st2{fill:#2CC5DD;}
	.st3{fill:none;}
	.st4{fill:#B1DCFF;}
	.st5{fill:#E6F7FF;}
	.st6{fill:#98CCFF;}
	.st7{opacity:0.3;fill:#1890FF;}
	.st8{fill:#80BEFF;}
	.st9{fill:#F2F8FF;}
	.st10{fill:#8295B7;}
	.st11{fill:#1D96F3;}
	.st12{fill:#099DFF;}
	.st13{fill:#DDE3E9;}
	.st14{fill:#FE4D74;}
	.st15{fill:#8596AC;}
	.st16{fill:#868E97;}
	.st17{fill:#778CA2;}
	.st18{opacity:0.6;}
	.st19{fill:#46C779;}
</style>
<g id="checkbox_checked_disable_1_">
	<g>
		<path class="st13" d="M13.286,15H2.714C1.768,15,1,14.231,1,13.286V2.714C1,1.769,1.768,1,2.714,1h10.572
			C14.231,1,15,1.769,15,2.714v10.572C15,14.231,14.231,15,13.286,15z M2.714,2C2.32,2,2,2.32,2,2.714v10.572
			C2,13.68,2.32,14,2.714,14h10.572C13.68,14,14,13.68,14,13.286V2.714C14,2.32,13.68,2,13.286,2H2.714z"/>
	</g>
</g>
</svg>
