<?xml version="1.0" encoding="utf-8"?>
<!-- Generator: Adobe Illustrator 23.0.2, SVG Export Plug-In . SVG Version: 6.00 Build 0)  -->
<svg version="1.1" id="图层_1" xmlns="http://www.w3.org/2000/svg" xmlns:xlink="http://www.w3.org/1999/xlink" x="0px" y="0px"
	 viewBox="0 0 16 16" style="enable-background:new 0 0 16 16;" xml:space="preserve">
<style type="text/css">
	.st0{fill:#4487D0;}
	.st1{fill-rule:evenodd;clip-rule:evenodd;fill:#778CA2;}
	.st2{fill:#2CC5DD;}
	.st3{fill:none;}
	.st4{fill:#B1DCFF;}
	.st5{fill:#E6F7FF;}
	.st6{fill:#98CCFF;}
	.st7{opacity:0.3;fill:#1890FF;}
	.st8{fill:#80BEFF;}
	.st9{fill:#F2F8FF;}
	.st10{fill:#8295B7;}
	.st11{fill:#1D96F3;}
	.st12{fill:#099DFF;}
	.st13{fill:#DDE3E9;}
	.st14{fill:#FE4D74;}
	.st15{fill:#8596AC;}
	.st16{fill:#868E97;}
	.st17{fill:#778CA2;}
	.st18{opacity:0.6;}
	.st19{fill:#46C779;}
</style>
<path class="st15" d="M14.58,13.742l-2.766-2.892c0.798-1.008,1.278-2.279,1.278-3.662c0-3.263-2.654-5.917-5.917-5.917
	S1.259,3.925,1.259,7.188s2.654,5.917,5.917,5.917c1.46,0,2.795-0.534,3.828-1.414l2.732,2.857c0.115,0.12,0.268,0.181,0.422,0.181
	c0.145,0,0.29-0.054,0.403-0.162C14.794,14.344,14.802,13.975,14.58,13.742z M7.175,11.937c-2.619,0-4.75-2.13-4.75-4.749
	s2.131-4.749,4.75-4.749s4.75,2.13,4.75,4.749S9.794,11.937,7.175,11.937z"/>
</svg>
