<?xml version="1.0" encoding="utf-8"?>
<!-- Generator: Adobe Illustrator 23.0.2, SVG Export Plug-In . SVG Version: 6.00 Build 0)  -->
<svg version="1.1" id="图层_1" xmlns="http://www.w3.org/2000/svg" xmlns:xlink="http://www.w3.org/1999/xlink" x="0px" y="0px"
	 viewBox="0 0 24 24" style="enable-background:new 0 0 24 24;" xml:space="preserve">
<style type="text/css">
	.st0{fill:#4487D0;}
	.st1{fill-rule:evenodd;clip-rule:evenodd;fill:#778CA2;}
	.st2{fill:#2CC5DD;}
	.st3{fill:none;}
	.st4{fill:#B1DCFF;}
	.st5{fill:#E6F7FF;}
	.st6{fill:#98CCFF;}
	.st7{opacity:0.3;fill:#1890FF;}
	.st8{fill:#80BEFF;}
	.st9{fill:#F2F8FF;}
	.st10{fill:#8295B7;}
	.st11{fill:#1D96F3;}
	.st12{fill:#099DFF;}
	.st13{fill:#DDE3E9;}
	.st14{fill:#FE4D74;}
	.st15{fill:#8596AC;}
	.st16{fill:#868E97;}
	.st17{fill:#778CA2;}
	.st18{opacity:0.6;}
	.st19{fill:#46C779;}
</style>
<g>
	<path class="st14" d="M12,1C5.925,1,1,5.925,1,12s4.925,11,11,11c6.072-0.007,10.993-4.928,11-11C23,5.925,18.075,1,12,1z
		 M12.856,18.206c-0.023,0.024-0.046,0.048-0.07,0.07c-0.502,0.463-1.284,0.431-1.747-0.07c-0.502-0.542-0.502-1.379,0-1.921
		c0.235-0.253,0.563-0.397,0.908-0.4h0.001c0.345,0.003,0.673,0.148,0.908,0.4C13.358,16.827,13.358,17.664,12.856,18.206z
		 M13.537,7.5l-0.721,6.594c-0.01,0.5-0.416,0.901-0.916,0.906c-0.503-0.007-0.911-0.41-0.924-0.913L10.26,7.5
		c-0.027-0.124-0.04-0.25-0.04-0.377c0-0.001,0-0.002,0-0.003c-0.011-0.939,0.741-1.709,1.68-1.72
		c0.938,0.012,1.69,0.782,1.678,1.721C13.578,7.248,13.564,7.375,13.537,7.5z"/>
</g>
</svg>
