<?xml version="1.0" encoding="utf-8"?>
<!-- Generator: Adobe Illustrator 23.0.2, SVG Export Plug-In . SVG Version: 6.00 Build 0)  -->
<svg version="1.1" id="图层_1" xmlns="http://www.w3.org/2000/svg" xmlns:xlink="http://www.w3.org/1999/xlink" x="0px" y="0px"
	 viewBox="0 0 16 16" style="enable-background:new 0 0 16 16;" xml:space="preserve">
<style type="text/css">
	.st0{fill:#4487D0;}
	.st1{fill-rule:evenodd;clip-rule:evenodd;fill:#778CA2;}
	.st2{fill:#2CC5DD;}
	.st3{fill:none;}
	.st4{fill:#B1DCFF;}
	.st5{fill:#E6F7FF;}
	.st6{fill:#98CCFF;}
	.st7{opacity:0.3;fill:#1890FF;}
	.st8{fill:#80BEFF;}
	.st9{fill:#F2F8FF;}
	.st10{fill:#8295B7;}
	.st11{fill:#1D96F3;}
	.st12{fill:#099DFF;}
	.st13{fill:#DDE3E9;}
	.st14{fill:#FE4D74;}
	.st15{fill:#8596AC;}
	.st16{fill:#868E97;}
	.st17{fill:#778CA2;}
	.st18{opacity:0.6;}
	.st19{fill:#46C779;}
</style>
<g>
	<path class="st1" d="M13.004,11.91c-1.389-0.374-2.914,0.207-3.664,1.499c-0.143,0.247-0.252,0.511-0.324,0.783l-1.934-0.003
		c-0.217-0.824-0.761-1.543-1.524-1.977c-0.763-0.434-1.666-0.534-2.495-0.304l-0.979-1.651c0.201-0.2,0.377-0.426,0.52-0.673
		C3.353,8.293,3.09,6.697,2.063,5.699L2.996,4.09c1.389,0.374,2.915-0.207,3.664-1.499c0.143-0.247,0.252-0.511,0.324-0.783
		l1.934,0.003c0.217,0.824,0.761,1.543,1.524,1.977c0.764,0.434,1.666,0.535,2.495,0.304l0.979,1.651
		c-0.201,0.2-0.377,0.426-0.52,0.673c-0.749,1.292-0.486,2.889,0.542,3.886L13.004,11.91L13.004,11.91z M13.358,12.924L15,10.091
		c-1.161-0.659-1.563-2.125-0.897-3.274c0.218-0.376,0.523-0.672,0.877-0.876l-1.699-2.865c-0.725,0.42-1.651,0.455-2.433,0.012
		C10.067,2.644,9.63,1.835,9.63,1.004L6.273,1c0,0.404-0.104,0.814-0.322,1.19C5.285,3.339,3.803,3.736,2.642,3.077L1,5.91
		c1.161,0.659,1.563,2.125,0.896,3.274C1.678,9.56,1.373,9.855,1.02,10.06l1.699,2.865c0.725-0.42,1.651-0.455,2.433-0.012
		c0.781,0.443,1.218,1.252,1.218,2.083L9.726,15c0-0.404,0.104-0.814,0.322-1.19C10.715,12.662,12.197,12.264,13.358,12.924
		L13.358,12.924L13.358,12.924 M5.275,6.454c0.861-1.486,2.784-2.002,4.286-1.15s2.023,2.755,1.162,4.242
		c-0.861,1.486-2.784,2.002-4.286,1.15C4.936,9.843,4.414,7.94,5.275,6.454L5.275,6.454 M10.081,9.182
		c0.658-1.136,0.26-2.59-0.887-3.242C8.046,5.289,6.577,5.683,5.918,6.819c-0.658,1.135-0.26,2.59,0.888,3.241
		C7.953,10.712,9.423,10.317,10.081,9.182L10.081,9.182"/>
</g>
</svg>
