<?xml version="1.0" encoding="utf-8"?>
<!-- Generator: Adobe Illustrator 23.0.2, SVG Export Plug-In . SVG Version: 6.00 Build 0)  -->
<svg version="1.1" id="图层_1" xmlns="http://www.w3.org/2000/svg" xmlns:xlink="http://www.w3.org/1999/xlink" x="0px" y="0px"
	 viewBox="0 0 8 8" style="enable-background:new 0 0 8 8;" xml:space="preserve">
<style type="text/css">
	.st0{fill:#4487D0;}
	.st1{fill-rule:evenodd;clip-rule:evenodd;fill:#778CA2;}
	.st2{fill:#2CC5DD;}
	.st3{fill:none;}
	.st4{fill:#B1DCFF;}
	.st5{fill:#E6F7FF;}
	.st6{fill:#98CCFF;}
	.st7{opacity:0.3;fill:#1890FF;}
	.st8{fill:#80BEFF;}
	.st9{fill:#F2F8FF;}
	.st10{fill:#8295B7;}
	.st11{fill:#1D96F3;}
	.st12{fill:#099DFF;}
	.st13{fill:#DDE3E9;}
	.st14{fill:#FE4D74;}
	.st15{fill:#8596AC;}
	.st16{fill:#868E97;}
	.st17{fill:#778CA2;}
	.st18{opacity:0.6;}
	.st19{fill:#46C779;}
</style>
<path id="xinghao_1_" class="st14" d="M7.545,5.314L5.052,4l2.489-1.314c0.222-0.089,0.332-0.349,0.247-0.58
	C7.774,2.068,7.756,2.032,7.733,2C7.565,1.747,7.239,1.672,6.985,1.829L4.496,3.143V0.514C4.558,0.228,4.305,0,3.997,0
	C3.707-0.02,3.456,0.21,3.436,0.513c0,0,0,0,0,0v2.629L0.948,1.829C0.713,1.679,0.407,1.756,0.262,2
	C0.131,2.235,0.207,2.537,0.433,2.674C0.44,2.678,0.447,2.682,0.454,2.685L2.942,4L0.454,5.314c-0.222,0.089-0.332,0.349-0.247,0.58
	C0.22,5.931,0.239,5.967,0.262,6c0.121,0.156,0.307,0.241,0.499,0.229C0.848,6.237,0.935,6.217,1.01,6.171l2.489-1.314v2.629
	C3.436,7.772,3.69,8,3.997,8c0.291,0.02,0.542-0.21,0.561-0.514c0,0,0,0,0,0v-2.63l2.489,1.314c0.075,0.046,0.162,0.066,0.249,0.057
	c0.187-0.014,0.363-0.095,0.499-0.229C7.876,5.737,7.772,5.452,7.545,5.314z"/>
</svg>
