<?xml version="1.0" encoding="utf-8"?>
<!-- Generator: Adobe Illustrator 23.0.2, SVG Export Plug-In . SVG Version: 6.00 Build 0)  -->
<svg version="1.1" id="图层_1" xmlns="http://www.w3.org/2000/svg" xmlns:xlink="http://www.w3.org/1999/xlink" x="0px" y="0px"
	 viewBox="0 0 16 16" style="enable-background:new 0 0 16 16;" xml:space="preserve">
<style type="text/css">
	.st0{fill:#4487D0;}
	.st1{fill-rule:evenodd;clip-rule:evenodd;fill:#778CA2;}
	.st2{fill:#2CC5DD;}
	.st3{fill:none;}
	.st4{fill:#B1DCFF;}
	.st5{fill:#E6F7FF;}
	.st6{fill:#98CCFF;}
	.st7{opacity:0.3;fill:#1890FF;}
	.st8{fill:#80BEFF;}
	.st9{fill:#F2F8FF;}
	.st10{fill:#8295B7;}
	.st11{fill:#1D96F3;}
	.st12{fill:#099DFF;}
	.st13{fill:#DDE3E9;}
	.st14{fill:#FE4D74;}
	.st15{fill:#8596AC;}
	.st16{fill:#868E97;}
	.st17{fill:#778CA2;}
	.st18{opacity:0.6;}
	.st19{fill:#46C779;}
</style>
<g>
	<g>
		<path class="st2" d="M10.877,8.25c-0.39-0.275-0.797-0.52-1.234-0.694l0.206-0.156c0.899-0.671,1.427-1.706,1.429-2.804
			c0-1.986-1.665-3.596-3.719-3.596c-0.003,0-0.006,0-0.009,0C5.5,1.006,3.839,2.613,3.839,4.596c0,1.098,0.528,2.134,1.428,2.804
			l0.209,0.157C5.339,7.612,5.204,7.673,5.071,7.738c-1.816,0.891-3.224,2.726-3.794,4.994C1.097,13.447,1,14.204,1,14.989h0.626
			c0.033,0.007,0.067,0.01,0.102,0.01h5.821h1.18l0.001-0.01h0.479c-0.698-0.742-1.134-1.735-1.134-2.835
			C8.075,10.338,9.251,8.811,10.877,8.25z"/>
	</g>
	<g>
		<path class="st2" d="M14.93,11.306h-0.004c-0.045-0.239-0.199-0.394-0.395-0.394h-0.027c-0.376,0-0.681-0.304-0.682-0.681
			c0.005-0.088,0.025-0.176,0.059-0.258c0.094-0.221,0.016-0.478-0.185-0.61l-0.793-0.441c-0.199-0.081-0.429-0.036-0.583,0.115
			c-0.099,0.103-0.363,0.315-0.544,0.315c-0.181,0-0.45-0.216-0.548-0.319c-0.152-0.153-0.381-0.201-0.582-0.122l-0.015,0.006
			L9.815,9.365L9.795,9.376c-0.19,0.134-0.26,0.383-0.168,0.597c0.035,0.082,0.055,0.17,0.06,0.259
			c-0.002,0.376-0.306,0.681-0.683,0.682H8.974c-0.192,0-0.346,0.155-0.39,0.394c-0.039,0.209-0.062,0.42-0.068,0.633
			c0.006,0.213,0.029,0.424,0.068,0.633c0.045,0.238,0.199,0.392,0.395,0.392h0.026c0.377,0,0.682,0.305,0.683,0.682
			c-0.005,0.088-0.025,0.175-0.059,0.257c-0.093,0.221-0.014,0.478,0.187,0.609l0.782,0.436c0.202,0.085,0.435,0.036,0.586-0.122
			c0.097-0.105,0.371-0.334,0.557-0.334c0.186,0,0.46,0.229,0.562,0.339c0.101,0.108,0.241,0.168,0.388,0.167
			c0.075-0.001,0.149-0.017,0.217-0.05l0.793-0.436L13.72,14.5c0.19-0.133,0.26-0.381,0.168-0.595
			c-0.034-0.083-0.054-0.171-0.059-0.26c0.001-0.376,0.305-0.681,0.682-0.682h0.031c0.192,0,0.346-0.154,0.39-0.392
			c0.038-0.209,0.06-0.421,0.067-0.633C14.992,11.726,14.97,11.514,14.93,11.306z M14.333,12.355
			c-0.702,0.081-1.204,0.716-1.123,1.417c0.01,0.091,0.031,0.18,0.06,0.267l-0.571,0.315c-0.073-0.072-0.152-0.139-0.234-0.201
			c-0.253-0.187-0.497-0.282-0.727-0.282c-0.263,0.013-0.515,0.11-0.72,0.276c-0.082,0.06-0.16,0.127-0.234,0.198l-0.545-0.304
			c0.23-0.668-0.124-1.395-0.792-1.625c-0.087-0.031-0.178-0.051-0.271-0.061c-0.022-0.139-0.036-0.279-0.039-0.419
			c0.003-0.14,0.017-0.279,0.038-0.416c0.647-0.085,1.13-0.635,1.132-1.288c-0.003-0.134-0.026-0.267-0.07-0.394l0.59-0.324
			c0.073,0.069,0.151,0.134,0.234,0.193c0.202,0.159,0.448,0.252,0.705,0.264c0.256-0.013,0.503-0.105,0.705-0.264
			c0.081-0.057,0.159-0.12,0.232-0.188l0.565,0.313c-0.044,0.127-0.067,0.26-0.07,0.394c-0.002,0.655,0.484,1.211,1.134,1.296
			c0.023,0.138,0.036,0.277,0.039,0.416c-0.003,0.14-0.017,0.279-0.039,0.416C14.332,12.355,14.333,12.355,14.333,12.355z"/>
		<path class="st2" d="M11.74,10.733v-0.003c-0.665,0.001-1.203,0.54-1.203,1.205s0.54,1.203,1.205,1.203
			c0.664-0.001,1.202-0.538,1.203-1.202C12.944,11.272,12.405,10.734,11.74,10.733z M12.153,12.342
			c-0.108,0.111-0.257,0.175-0.412,0.176c-0.323,0.003-0.588-0.255-0.591-0.579c-0.003-0.323,0.255-0.588,0.579-0.591
			c0.323-0.003,0.588,0.255,0.591,0.579C12.321,12.082,12.261,12.232,12.153,12.342z"/>
	</g>
</g>
</svg>
