<?xml version="1.0" encoding="utf-8"?>
<!-- Generator: Adobe Illustrator 23.0.2, SVG Export Plug-In . SVG Version: 6.00 Build 0)  -->
<svg version="1.1" id="图层_1" xmlns="http://www.w3.org/2000/svg" xmlns:xlink="http://www.w3.org/1999/xlink" x="0px" y="0px"
	 viewBox="0 0 16 16" style="enable-background:new 0 0 16 16;" xml:space="preserve">
<style type="text/css">
	.st0{fill:#4487D0;}
	.st1{fill-rule:evenodd;clip-rule:evenodd;fill:#778CA2;}
	.st2{fill:#2CC5DD;}
	.st3{fill:none;}
	.st4{fill:#B1DCFF;}
	.st5{fill:#E6F7FF;}
	.st6{fill:#98CCFF;}
	.st7{opacity:0.3;fill:#1890FF;}
	.st8{fill:#80BEFF;}
	.st9{fill:#F2F8FF;}
	.st10{fill:#8295B7;}
	.st11{fill:#1D96F3;}
	.st12{fill:#099DFF;}
	.st13{fill:#DDE3E9;}
	.st14{fill:#FE4D74;}
	.st15{fill:#8596AC;}
	.st16{fill:#868E97;}
	.st17{fill:#778CA2;}
	.st18{opacity:0.6;}
	.st19{fill:#46C779;}
</style>
<path id="路径_595_1_" class="st17" d="M2.343,2.343c-3.124,3.124-3.124,8.19,0,11.314c3.124,3.124,8.19,3.124,11.314,0
	c3.124-3.124,3.124-8.189,0-11.313C10.533-0.781,5.468-0.781,2.343,2.343C2.343,2.343,2.343,2.343,2.343,2.343z M12.243,3.757
	c0.88,0.881,1.462,2.015,1.666,3.243H2.091c0.545-3.264,3.632-5.467,6.896-4.922C10.221,2.284,11.36,2.871,12.243,3.757z
	 M3.757,12.243C2.877,11.362,2.295,10.229,2.091,9h11.818c-0.545,3.264-3.632,5.467-6.896,4.922
	C5.779,13.717,4.64,13.129,3.757,12.243z"/>
</svg>
