<?xml version="1.0" encoding="utf-8"?>
<!-- Generator: Adobe Illustrator 23.0.2, SVG Export Plug-In . SVG Version: 6.00 Build 0)  -->
<svg version="1.1" id="图层_1" xmlns="http://www.w3.org/2000/svg" xmlns:xlink="http://www.w3.org/1999/xlink" x="0px" y="0px"
	 viewBox="0 0 16 16" style="enable-background:new 0 0 16 16;" xml:space="preserve">
<style type="text/css">
	.st0{fill:#4487D0;}
	.st1{fill-rule:evenodd;clip-rule:evenodd;fill:#778CA2;}
	.st2{fill:#2CC5DD;}
	.st3{fill:none;}
	.st4{fill:#B1DCFF;}
	.st5{fill:#E6F7FF;}
	.st6{fill:#98CCFF;}
	.st7{opacity:0.3;fill:#1890FF;}
	.st8{fill:#80BEFF;}
	.st9{fill:#F2F8FF;}
	.st10{fill:#8295B7;}
	.st11{fill:#1D96F3;}
	.st12{fill:#099DFF;}
	.st13{fill:#DDE3E9;}
	.st14{fill:#FE4D74;}
	.st15{fill:#8596AC;}
	.st16{fill:#868E97;}
	.st17{fill:#778CA2;}
	.st18{opacity:0.6;}
	.st19{fill:#46C779;}
</style>
<path id="链接-01" class="st17" d="M8,16c-4.418,0-8-3.582-8-8s3.582-8,8-8s8,3.582,8,8S12.418,16,8,16z M8.852,7.172L8.824,7.144
	C8.77,7.09,8.713,7.041,8.652,6.995L8.1,7.549c0.067,0.038,0.128,0.085,0.182,0.139l0.029,0.028C8.663,8.072,8.662,8.645,8.309,9
	L6.8,10.517c-0.356,0.354-0.931,0.354-1.287,0l-0.029-0.028c-0.355-0.355-0.355-0.931,0-1.286l0.685-0.685
	C6.051,8.226,5.994,7.914,5.999,7.6L4.934,8.658c-0.654,0.657-0.654,1.719,0,2.376l0.028,0.028c0.657,0.653,1.719,0.653,2.376,0
	l1.514-1.514C9.505,8.891,9.505,7.829,8.852,7.172z M11.061,4.963l-0.028-0.028c-0.657-0.654-1.719-0.654-2.376,0L7.143,6.449
	c-0.654,0.657-0.654,1.719,0,2.376l0.028,0.028C7.226,8.905,7.283,8.954,7.343,9L7.9,8.448c-0.066-0.04-0.127-0.087-0.181-0.141
	L7.688,8.28c-0.355-0.356-0.355-0.931,0-1.287L9.2,5.479c0.355-0.355,0.931-0.355,1.286,0l0.028,0.028
	c0.355,0.356,0.355,0.931,0,1.287L9.83,7.478C9.949,7.771,10.007,8.084,10,8.4l1.06-1.063c0.654-0.656,0.654-1.718,0-2.374H11.061z"
	/>
</svg>
