<?xml version="1.0" encoding="utf-8"?>
<!-- Generator: Adobe Illustrator 23.0.2, SVG Export Plug-In . SVG Version: 6.00 Build 0)  -->
<svg version="1.1" id="图层_1" xmlns="http://www.w3.org/2000/svg" xmlns:xlink="http://www.w3.org/1999/xlink" x="0px" y="0px"
	 viewBox="0 0 16 16" style="enable-background:new 0 0 16 16;" xml:space="preserve">
<style type="text/css">
	.st0{fill:#4487D0;}
	.st1{fill-rule:evenodd;clip-rule:evenodd;fill:#778CA2;}
	.st2{fill:#2CC5DD;}
	.st3{fill:none;}
	.st4{fill:#B1DCFF;}
	.st5{fill:#E6F7FF;}
	.st6{fill:#98CCFF;}
	.st7{opacity:0.3;fill:#1890FF;}
	.st8{fill:#80BEFF;}
	.st9{fill:#F2F8FF;}
	.st10{fill:#8295B7;}
	.st11{fill:#1D96F3;}
	.st12{fill:#099DFF;}
	.st13{fill:#DDE3E9;}
	.st14{fill:#FE4D74;}
	.st15{fill:#8596AC;}
	.st16{fill:#868E97;}
	.st17{fill:#778CA2;}
	.st18{opacity:0.6;}
	.st19{fill:#46C779;}
</style>
<g id="重置密码-01-01" transform="translate(-0.06 -1.342)">
	<path id="路径_658" class="st10" d="M9.867,8.54H9.52V7.987c0-0.823-0.667-1.49-1.49-1.49s-1.49,0.667-1.49,1.49v0.551H6.193
		c-0.239,0-0.433,0.194-0.433,0.433v2.667c0,0.239,0.194,0.433,0.433,0.433h3.672c0.239,0,0.433-0.194,0.433-0.433V8.972
		C10.299,8.733,10.106,8.54,9.867,8.54C9.867,8.54,9.867,8.54,9.867,8.54z M7.367,7.988c0-0.366,0.297-0.663,0.663-0.663
		c0.366,0,0.663,0.297,0.663,0.663v0.551H7.367L7.367,7.988z"/>
	<g id="组_1441" transform="translate(3.794 1.342)">
		<g id="组_1439">
			<path id="路径_659" class="st10" d="M9.843,8.87c-0.556,0-1.007-0.451-1.007-1.007v0c0.001-2.516-2.037-4.557-4.553-4.558
				c-1.21-0.001-2.371,0.48-3.226,1.336C0.648,5.019,0.01,4.995-0.368,4.586c-0.357-0.386-0.358-0.982,0-1.369
				C2.197,0.65,6.357,0.649,8.924,3.215c1.233,1.233,1.926,2.905,1.926,4.648C10.85,8.419,10.399,8.87,9.843,8.87L9.843,8.87z"/>
		</g>
		<g id="组_1440" transform="translate(9.538 7.625)">
			<path id="路径_660" class="st10" d="M-2.359-0.064L0.185,2.48l2.543-2.543C2.728-0.064-2.296-0.002-2.359-0.064z"/>
		</g>
	</g>
	<g id="组_1444" transform="translate(0.06 6.941)">
		<g id="组_1442" transform="translate(1.722 1.501)">
			<path id="路径_661" class="st10" d="M6.266,7.609C2.638,7.605-0.302,4.665-0.306,1.037c0-0.557,0.451-1.008,1.008-1.008
				S1.709,0.48,1.709,1.037l0,0C1.71,3.554,3.751,5.593,6.268,5.593c1.207,0,2.365-0.48,3.22-1.333c0.394-0.394,1.032-0.394,1.425,0
				c0.394,0.394,0.394,1.032,0,1.425C9.683,6.921,8.009,7.614,6.266,7.609z"/>
		</g>
		<g id="组_1443">
			<path id="路径_662" class="st10" d="M5.086,2.836l-2.543-2.54L0,2.836C0,2.836,5.023,2.778,5.086,2.836z"/>
		</g>
	</g>
</g>
</svg>
