<?xml version="1.0" encoding="utf-8"?>
<!-- Generator: Adobe Illustrator 23.0.2, SVG Export Plug-In . SVG Version: 6.00 Build 0)  -->
<svg version="1.1" id="图层_1" xmlns="http://www.w3.org/2000/svg" xmlns:xlink="http://www.w3.org/1999/xlink" x="0px" y="0px"
	 viewBox="0 0 16 16" style="enable-background:new 0 0 16 16;" xml:space="preserve">
<style type="text/css">
	.st0{fill:#4487D0;}
	.st1{fill-rule:evenodd;clip-rule:evenodd;fill:#778CA2;}
	.st2{fill:#2CC5DD;}
	.st3{fill:none;}
	.st4{fill:#B1DCFF;}
	.st5{fill:#E6F7FF;}
	.st6{fill:#98CCFF;}
	.st7{opacity:0.3;fill:#1890FF;}
	.st8{fill:#80BEFF;}
	.st9{fill:#F2F8FF;}
	.st10{fill:#8295B7;}
	.st11{fill:#1D96F3;}
	.st12{fill:#099DFF;}
	.st13{fill:#DDE3E9;}
	.st14{fill:#FE4D74;}
	.st15{fill:#8596AC;}
	.st16{fill:#868E97;}
	.st17{fill:#778CA2;}
	.st18{opacity:0.6;}
	.st19{fill:#46C779;}
</style>
<g>
	<path class="st10" d="M11.671,12.001c-0.124-0.071-0.264-0.115-0.408-0.127c-0.147-0.017-0.293,0.008-0.427,0.059
		C10.76,11.962,10.69,12,10.601,12.06l0.133,0.196h0l-0.147-0.185l-0.136,0.09c-0.056,0.036-0.113,0.071-0.171,0.104
		c-0.116,0.067-0.234,0.129-0.355,0.186c-0.121,0.056-0.244,0.107-0.369,0.153c-0.125,0.045-0.251,0.086-0.379,0.12
		s-0.258,0.063-0.389,0.086c-0.131,0.023-0.264,0.04-0.398,0.051c-0.124,0.01-0.247,0.016-0.407,0.016
		c-0.107,0.003-0.23-0.006-0.344-0.016l-0.22-0.026c-0.094-0.011-0.189-0.024-0.287-0.044c-0.036-0.006-0.072-0.016-0.108-0.025
		l-0.071-0.017c-0.09-0.018-0.181-0.041-0.25-0.06l-0.149-0.054c-0.102-0.031-0.203-0.068-0.309-0.114L6.187,12.5
		c-0.12-0.055-0.24-0.114-0.352-0.173c-1.402-0.766-2.299-2.202-2.383-3.787h1.461L2.458,4.834L0,8.536h1.467
		c0.044,1.251,0.44,2.452,1.143,3.474l0.032,0.059c0.059,0.086,0.123,0.165,0.187,0.245l0.144,0.183
		c0.117,0.144,0.245,0.281,0.411,0.451c0.435,0.438,0.929,0.811,1.513,1.134c0.156,0.087,0.315,0.161,0.474,0.233l0.126,0.055
		c0.204,0.08,0.41,0.155,0.625,0.224c0.125,0.036,0.25,0.068,0.381,0.099l0.097,0.022c0.052,0.013,0.104,0.026,0.139,0.032
		c0.044,0.012,0.088,0.021,0.123,0.026c0.09,0.016,0.178,0.027,0.267,0.037l0.133,0.018c0.031,0.006,0.062,0.011,0.096,0.015
		c0.216,0.021,0.432,0.032,0.648,0.032c1.334,0,2.642-0.413,3.739-1.19c0.445-0.316,0.556-0.937,0.245-1.383
		C11.908,12.176,11.799,12.075,11.671,12.001z"/>
	<path class="st10" d="M14.53,7.458c-0.043-1.247-0.436-2.444-1.13-3.45l-0.046-0.086c-0.091-0.126-0.187-0.25-0.279-0.359
		L13.04,3.509c-0.654-0.795-1.498-1.431-2.439-1.839l-0.084-0.038c-0.15-0.061-0.304-0.118-0.5-0.185
		c-0.042-0.015-0.086-0.03-0.127-0.042c-0.136-0.041-0.272-0.077-0.415-0.11L9.132,1.218c-0.08-0.013-0.16-0.022-0.241-0.031
		l-0.28-0.034C8.442,1.138,8.27,1.13,8.101,1.127L8.002,1.126c-0.006,0-0.013,0-0.019,0c-1.345,0-2.635,0.411-3.737,1.193
		C4.033,2.479,3.897,2.712,3.86,2.975C3.823,3.238,3.891,3.5,4.052,3.713c0.31,0.413,0.893,0.518,1.34,0.232
		C6.276,3.318,7.358,3.033,8.436,3.14l0.121,0.015C8.662,3.168,8.769,3.183,8.88,3.207l0.136,0.03
		c0.105,0.025,0.207,0.049,0.316,0.081c0.026,0.007,0.05,0.016,0.088,0.03c0.117,0.039,0.23,0.078,0.377,0.141
		c0.665,0.287,1.26,0.735,1.691,1.251l0.036,0.054c0.617,0.755,0.978,1.693,1.028,2.665h-1.458l2.457,3.705L16,7.458H14.53z"/>
</g>
</svg>
