<?xml version="1.0" encoding="utf-8"?>
<!-- Generator: Adobe Illustrator 23.0.2, SVG Export Plug-In . SVG Version: 6.00 Build 0)  -->
<svg version="1.1" id="图层_1" xmlns="http://www.w3.org/2000/svg" xmlns:xlink="http://www.w3.org/1999/xlink" x="0px" y="0px"
	 viewBox="0 0 16 16" style="enable-background:new 0 0 16 16;" xml:space="preserve">
<style type="text/css">
	.st0{fill:#4487D0;}
	.st1{fill-rule:evenodd;clip-rule:evenodd;fill:#778CA2;}
	.st2{fill:#2CC5DD;}
	.st3{fill:none;}
	.st4{fill:#B1DCFF;}
	.st5{fill:#E6F7FF;}
	.st6{fill:#98CCFF;}
	.st7{opacity:0.3;fill:#1890FF;}
	.st8{fill:#80BEFF;}
	.st9{fill:#F2F8FF;}
	.st10{fill:#8295B7;}
	.st11{fill:#1D96F3;}
	.st12{fill:#099DFF;}
	.st13{fill:#DDE3E9;}
	.st14{fill:#FE4D74;}
	.st15{fill:#8596AC;}
	.st16{fill:#868E97;}
	.st17{fill:#778CA2;}
	.st18{opacity:0.6;}
	.st19{fill:#46C779;}
</style>
<path id="钥匙-01" class="st10" d="M2.682,2.847C1.237,4.307,1.25,6.662,2.71,8.107c1.221,1.208,3.111,1.424,4.573,0.52
	l5.529,5.389c0.369,0.359,0.959,0.351,1.318-0.018c0.359-0.369,0.351-0.959-0.018-1.318l-1.773-1.727l1.075-1.1
	c0.368-0.359,0.376-0.95,0.016-1.318C13.07,8.167,12.48,8.16,12.112,8.52c-0.011,0.011-0.022,0.022-0.033,0.034l-1.075,1.1
	L8.58,7.292c1.024-1.781,0.41-4.054-1.371-5.078C6.631,1.881,5.974,1.711,5.306,1.72C4.316,1.73,3.371,2.135,2.682,2.847z
	 M6.653,4.113C7.372,4.84,7.386,6.006,6.685,6.751C5.944,7.465,4.764,7.442,4.05,6.7c-0.682-0.708-0.696-1.824-0.033-2.55
	c0.718-0.738,1.899-0.754,2.637-0.036V4.113z"/>
</svg>
