<?xml version="1.0" encoding="utf-8"?>
<!-- Generator: Adobe Illustrator 23.0.2, SVG Export Plug-In . SVG Version: 6.00 Build 0)  -->
<svg version="1.1" id="图层_1" xmlns="http://www.w3.org/2000/svg" xmlns:xlink="http://www.w3.org/1999/xlink" x="0px" y="0px"
	 viewBox="0 0 16 16" style="enable-background:new 0 0 16 16;" xml:space="preserve">
<style type="text/css">
	.st0{fill:#4487D0;}
	.st1{fill-rule:evenodd;clip-rule:evenodd;fill:#778CA2;}
	.st2{fill:#2CC5DD;}
	.st3{fill:none;}
	.st4{fill:#B1DCFF;}
	.st5{fill:#E6F7FF;}
	.st6{fill:#98CCFF;}
	.st7{opacity:0.3;fill:#1890FF;}
	.st8{fill:#80BEFF;}
	.st9{fill:#F2F8FF;}
	.st10{fill:#8295B7;}
	.st11{fill:#1D96F3;}
	.st12{fill:#099DFF;}
	.st13{fill:#DDE3E9;}
	.st14{fill:#FE4D74;}
	.st15{fill:#8596AC;}
	.st16{fill:#868E97;}
	.st17{fill:#778CA2;}
	.st18{opacity:0.6;}
	.st19{fill:#46C779;}
</style>
<g id="组_679" transform="translate(10 -4)">
	<path id="路径_382" class="st10" d="M5,6H1V5.062C0.999,4.475,0.524,4-0.063,4h-3.875C-4.524,4.001-4.999,4.476-5,5.062V6h-4
		c-0.552,0-1,0.448-1,1s0.448,1,1,1H5c0.552,0,1-0.448,1-1S5.552,6,5,6z"/>
	<path id="矩形_1005" class="st10" d="M-4,10.5L-4,10.5c0.552,0,1,0.448,1,1v4c0,0.552-0.448,1-1,1l0,0c-0.552,0-1-0.448-1-1v-4
		C-5,10.948-4.552,10.5-4,10.5z"/>
	<path id="矩形_1006" class="st10" d="M0,10.5L0,10.5c0.552,0,1,0.448,1,1v4c0,0.552-0.448,1-1,1l0,0c-0.552,0-1-0.448-1-1v-4
		C-1,10.948-0.552,10.5,0,10.5z"/>
	<path id="路径_383" class="st10" d="M2.995,9l-0.016,9L-7,17.979V9h-2v8.979C-9,19.095-8.095,20-6.979,20h9.958
		C4.095,20,5,19.095,5,17.979V9H2.995z"/>
</g>
</svg>
