<?xml version="1.0" encoding="utf-8"?>
<!-- Generator: Adobe Illustrator 23.0.2, SVG Export Plug-In . SVG Version: 6.00 Build 0)  -->
<svg version="1.1" id="图层_1" xmlns="http://www.w3.org/2000/svg" xmlns:xlink="http://www.w3.org/1999/xlink" x="0px" y="0px"
	 viewBox="0 0 16 16" style="enable-background:new 0 0 16 16;" xml:space="preserve">
<style type="text/css">
	.st0_s{fill:#fff;}
	.st1{fill-rule:evenodd;clip-rule:evenodd;fill:#778CA2;}
	.st2{fill:#2CC5DD;}
	.st3{fill:none;}
	.st4{fill:#B1DCFF;}
	.st5{fill:#E6F7FF;}
	.st6{fill:#98CCFF;}
	.st7{opacity:0.3;fill:#1890FF;}
	.st8{fill:#80BEFF;}
	.st9{fill:#F2F8FF;}
	.st10{fill:#8295B7;}
	.st11{fill:#1D96F3;}
	.st12{fill:#099DFF;}
	.st13{fill:#DDE3E9;}
	.st14{fill:#FE4D74;}
	.st15{fill:#8596AC;}
	.st16{fill:#868E97;}
	.st17{fill:#778CA2;}
	.st18{opacity:0.6;}
	.st19{fill:#46C779;}
</style>
<g>
	<g>
		<path class="st0_s" d="M13.631,5.063C13.53,5.01,13.48,4.956,13.48,4.85c-0.051-4.899-6.317-5.858-7.681-2.396
			C5.647,2.613,5.546,2.773,5.293,2.72C3.676,2.454,2.261,3.039,2.059,4.956c0,0.16-0.152,0.266-0.253,0.32
			c-1.364,0.586-1.97,2.183-1.768,3.621c0.202,1.757,1.516,2.716,3.184,2.716c0.072,0,0.157,0,0.245,0
			c0.17-0.501,0.466-0.938,0.851-1.266c-0.408,0.012-0.843,0.024-1.146-0.012c-1.112-0.107-1.769-0.852-1.92-1.598
			C1.049,7.725,1.857,6.82,2.666,6.288c0.253-0.16,0.505-0.426,0.556-0.959c0-1.172,0.758-1.757,2.122-1.225
			c0.505,0.213,1.112-0.16,1.263-0.533c1.465-3.248,6.052-1.608,5.559,1.864c-0.097,0.682,0.406,0.796,0.556,0.852
			c1.263,0.373,2.325,0.905,1.971,2.556c-0.253,1.065-1.465,1.438-2.527,1.438c-0.818,0-0.873-0.037-1.183-0.015
			c0.441,0.333,0.783,0.801,0.973,1.347c0.335,0,0.665,0,1.17,0c1.415-0.053,2.628-1.171,2.83-2.663
			C16.259,6.501,14.945,5.382,13.631,5.063z"/>
	</g>
	<g>
		<path class="st0_s" d="M9.589,10.219c-0.521,0.366-1.145,0.578-1.816,0.578c-0.669,0-1.291-0.211-1.81-0.574
			c-1.407,0.716-2.379,2.237-2.379,3.998c0,1.863,8.39,1.837,8.39,0C11.973,12.456,11,10.933,9.589,10.219L9.589,10.219z"/>
		<path class="st0_s" d="M4.952,7.32c0-1.647,1.262-2.982,2.82-2.982s2.82,1.335,2.82,2.982s-1.262,2.981-2.82,2.981
			C6.214,10.301,4.952,8.967,4.952,7.32L4.952,7.32z"/>
	</g>
</g>
</svg>
