<?xml version="1.0" encoding="utf-8"?>
<!-- Generator: Adobe Illustrator 23.0.3, SVG Export Plug-In . SVG Version: 6.00 Build 0)  -->
<svg version="1.1" id="图层_1" xmlns="http://www.w3.org/2000/svg" xmlns:xlink="http://www.w3.org/1999/xlink" x="0px" y="0px"
	 viewBox="0 0 16 16" style="enable-background:new 0 0 16 16;" xml:space="preserve">
<style type="text/css">
	.st0{fill:#4487D0;}
	.st1{fill-rule:evenodd;clip-rule:evenodd;fill:#778CA2;}
	.st2{fill:#2CC5DD;}
	.st3{fill:none;}
	.st4{fill:#B1DCFF;}
	.st5{fill:#E6F7FF;}
	.st6{fill:#98CCFF;}
	.st7{opacity:0.3;fill:#1890FF;}
	.st8{fill:#80BEFF;}
	.st9{fill:#F2F8FF;}
	.st10{fill:#8295B7;}
	.st11{fill:#1D96F3;}
	.st12{fill:#099DFF;}
	.st13{fill:#DDE3E9;}
	.st14{fill:#FE4D74;}
	.st15{fill:#8596AC;}
	.st16{fill:#868E97;}
	.st17{fill:#778CA2;}
	.st18{opacity:0.6;}
	.st19{fill:#46C779;}
	.st20{fill:#A2A9BB;}
</style>
<path id="提示-01" class="st20" d="M16,8c0-4.418-3.582-8-8-8C3.582,0,0,3.582,0,8c0,4.418,3.582,8,8,8l0,0
	C12.418,15.999,15.999,12.418,16,8 M9.251,12.052c-0.359,0.141-0.643,0.248-0.856,0.322c-0.24,0.078-0.492,0.116-0.744,0.111
	c-0.364,0.023-0.724-0.09-1.009-0.317c-0.236-0.201-0.368-0.497-0.361-0.807c0-0.13,0.009-0.26,0.027-0.389
	c0.018-0.131,0.046-0.28,0.085-0.448l0.45-1.583c0.04-0.151,0.074-0.297,0.102-0.431c0.026-0.123,0.04-0.248,0.041-0.373
	C7,7.986,6.955,7.835,6.86,7.716C6.719,7.621,6.549,7.578,6.38,7.597C6.259,7.598,6.139,7.616,6.023,7.65
	C5.902,7.687,5.798,7.721,5.716,7.753l0.118-0.488C6.129,7.146,6.41,7.043,6.677,6.958C6.922,6.877,7.179,6.833,7.438,6.83
	c0.359-0.024,0.714,0.085,0.997,0.307c0.232,0.204,0.36,0.501,0.35,0.81c0,0.07-0.008,0.19-0.024,0.364
	c-0.014,0.162-0.044,0.322-0.09,0.478l-0.445,1.579c-0.042,0.143-0.076,0.287-0.102,0.434c-0.025,0.122-0.04,0.245-0.044,0.369
	c-0.019,0.157,0.033,0.314,0.142,0.428c0.146,0.09,0.317,0.13,0.488,0.115c0.125-0.003,0.249-0.022,0.369-0.056
	c0.102-0.026,0.201-0.06,0.298-0.102l-0.123,0.489l0,0 M9.174,5.641c-0.203,0.192-0.473,0.296-0.752,0.29
	c-0.279,0.005-0.55-0.099-0.754-0.289c-0.389-0.35-0.421-0.95-0.07-1.339c0.022-0.025,0.046-0.048,0.07-0.07
	c0.426-0.39,1.079-0.39,1.505,0c0.389,0.35,0.42,0.949,0.07,1.337c-0.022,0.024-0.045,0.048-0.07,0.07V5.641z"/>
</svg>
