<?xml version="1.0" encoding="utf-8"?>
<!-- Generator: Adobe Illustrator 23.0.2, SVG Export Plug-In . SVG Version: 6.00 Build 0)  -->
<svg version="1.1" id="图层_1" xmlns="http://www.w3.org/2000/svg" xmlns:xlink="http://www.w3.org/1999/xlink" x="0px" y="0px"
	 viewBox="0 0 16 16" style="enable-background:new 0 0 16 16;" xml:space="preserve">
<style type="text/css">
	.st0_s{fill:#fff;}
	.st1{fill-rule:evenodd;clip-rule:evenodd;fill:#778CA2;}
	.st2{fill:#2CC5DD;}
	.st3{fill:none;}
	.st4{fill:#B1DCFF;}
	.st5{fill:#E6F7FF;}
	.st6{fill:#98CCFF;}
	.st7{opacity:0.3;fill:#1890FF;}
	.st8{fill:#80BEFF;}
	.st9{fill:#F2F8FF;}
	.st10{fill:#8295B7;}
	.st11{fill:#1D96F3;}
	.st12{fill:#099DFF;}
	.st13{fill:#DDE3E9;}
	.st14{fill:#FE4D74;}
	.st15{fill:#8596AC;}
	.st16{fill:#868E97;}
	.st17{fill:#778CA2;}
	.st18{opacity:0.6;}
	.st19{fill:#46C779;}
</style>
<g>
	<g>
		<path class="st0_s" d="M11.082,8.268c-0.418-0.294-0.854-0.557-1.323-0.743l0.22-0.167c0.964-0.719,1.529-1.828,1.531-3.004
			c0-2.128-1.784-3.853-3.985-3.853c-0.003,0-0.007,0-0.009,0C5.321,0.507,3.542,2.229,3.542,4.353c0,1.176,0.565,2.286,1.53,3.004
			l0.224,0.169C5.148,7.585,5.004,7.649,4.862,7.72c-1.946,0.954-3.454,2.921-4.065,5.351C0.604,13.836,0.5,14.647,0.5,15.488h0.67
			c0.036,0.007,0.072,0.011,0.11,0.011h6.236h1.265l0.001-0.011h0.514c-0.748-0.795-1.215-1.859-1.215-3.037
			C8.081,10.505,9.34,8.869,11.082,8.268z"/>
	</g>
	<g>
		<path class="st0_s" d="M15.425,11.542H15.42c-0.048-0.256-0.213-0.422-0.423-0.422h-0.029c-0.403,0-0.729-0.326-0.731-0.729
			c0.006-0.095,0.027-0.188,0.063-0.277c0.1-0.237,0.017-0.512-0.199-0.653l-0.849-0.472c-0.214-0.087-0.459-0.038-0.624,0.124
			c-0.106,0.111-0.389,0.337-0.583,0.337c-0.194,0-0.482-0.232-0.587-0.342c-0.163-0.164-0.408-0.216-0.623-0.13l-0.016,0.007
			L9.944,9.462L9.924,9.474c-0.203,0.143-0.278,0.411-0.18,0.639c0.037,0.088,0.059,0.182,0.065,0.277
			c-0.002,0.403-0.328,0.729-0.732,0.73H9.043c-0.206,0-0.37,0.166-0.418,0.422c-0.042,0.224-0.067,0.45-0.073,0.678
			c0.007,0.228,0.031,0.455,0.073,0.678c0.048,0.255,0.213,0.42,0.423,0.42h0.028c0.404,0,0.731,0.327,0.732,0.731
			c-0.006,0.095-0.027,0.187-0.063,0.276c-0.099,0.237-0.015,0.512,0.201,0.652l0.838,0.467c0.217,0.091,0.466,0.038,0.628-0.13
			c0.104-0.112,0.397-0.358,0.597-0.358c0.2,0,0.493,0.246,0.602,0.364c0.108,0.115,0.259,0.18,0.416,0.179
			c0.081-0.001,0.159-0.019,0.232-0.053l0.849-0.467l0.02-0.014c0.203-0.142,0.278-0.409,0.18-0.637
			c-0.037-0.089-0.058-0.183-0.064-0.278c0.001-0.403,0.327-0.729,0.731-0.731h0.034c0.206,0,0.37-0.165,0.418-0.42
			c0.04-0.224,0.065-0.451,0.072-0.678C15.492,11.992,15.468,11.765,15.425,11.542z M14.786,12.666
			c-0.752,0.087-1.29,0.767-1.204,1.519c0.011,0.097,0.033,0.193,0.065,0.286l-0.612,0.337c-0.079-0.077-0.163-0.149-0.251-0.216
			c-0.271-0.201-0.532-0.302-0.779-0.302c-0.282,0.014-0.552,0.118-0.771,0.295c-0.088,0.065-0.172,0.136-0.25,0.212l-0.584-0.325
			c0.247-0.715-0.133-1.494-0.848-1.741c-0.094-0.033-0.191-0.054-0.291-0.066c-0.023-0.149-0.038-0.299-0.042-0.449
			c0.004-0.15,0.018-0.299,0.041-0.446c0.693-0.091,1.211-0.681,1.213-1.38c-0.003-0.143-0.028-0.286-0.075-0.422l0.632-0.347
			c0.079,0.074,0.162,0.143,0.25,0.207c0.217,0.171,0.48,0.27,0.756,0.283C12.309,10.099,12.573,10,12.79,9.83
			c0.087-0.061,0.171-0.128,0.248-0.202l0.606,0.336c-0.047,0.136-0.072,0.278-0.075,0.422c-0.002,0.702,0.518,1.297,1.215,1.388
			c0.024,0.148,0.038,0.297,0.042,0.446c-0.004,0.15-0.018,0.299-0.042,0.446C14.784,12.666,14.786,12.666,14.786,12.666z"/>
		<path class="st0_s" d="M12.007,10.928v-0.003c-0.712,0.001-1.289,0.578-1.289,1.291s0.578,1.289,1.291,1.289
			c0.711-0.001,1.288-0.576,1.289-1.288C13.297,11.506,12.72,10.929,12.007,10.928z M12.45,12.652
			c-0.116,0.119-0.276,0.187-0.442,0.188c-0.346,0.004-0.63-0.274-0.634-0.621c-0.004-0.346,0.274-0.63,0.621-0.634
			c0.346-0.004,0.63,0.274,0.634,0.621C12.63,12.374,12.565,12.534,12.45,12.652z"/>
	</g>
</g>
</svg>
