<?xml version="1.0" encoding="utf-8"?>
<!-- Generator: Adobe Illustrator 23.0.2, SVG Export Plug-In . SVG Version: 6.00 Build 0)  -->
<svg version="1.1" id="图层_1" xmlns="http://www.w3.org/2000/svg" xmlns:xlink="http://www.w3.org/1999/xlink" x="0px" y="0px"
	 viewBox="0 0 16 16" style="enable-background:new 0 0 16 16;" xml:space="preserve">
<style type="text/css">
	.st0{fill:#4487D0;}
	.st1{fill-rule:evenodd;clip-rule:evenodd;fill:#778CA2;}
	.st2{fill:#2CC5DD;}
	.st3{fill:none;}
	.st4{fill:#B1DCFF;}
	.st5{fill:#E6F7FF;}
	.st6{fill:#98CCFF;}
	.st7{opacity:0.3;fill:#1890FF;}
	.st8{fill:#80BEFF;}
	.st9{fill:#F2F8FF;}
	.st10{fill:#8295B7;}
	.st11{fill:#1D96F3;}
	.st12{fill:#099DFF;}
	.st13{fill:#DDE3E9;}
	.st14{fill:#FE4D74;}
	.st15{fill:#8596AC;}
	.st16{fill:#868E97;}
	.st17{fill:#778CA2;}
	.st18{opacity:0.6;}
	.st19{fill:#46C779;}
</style>
<g id="组_744" transform="translate(1170 387)">
	<g id="组_743">
		<path id="路径_393" class="st10" d="M-1167.994-384.994h10v4h2v-4.917c0-0.598-0.485-1.083-1.083-1.083c0,0,0,0,0,0h-11.834
			c-0.598,0-1.083,0.485-1.083,1.083c0,0,0,0,0,0v12.834c0,0.598,0.485,1.083,1.083,1.083c0,0,0,0,0,0h4.917v-2h-4V-384.994z"/>
	</g>
	<rect id="矩形_1019" x="-1166.994" y="-382.994" class="st10" width="6" height="1"/>
	<rect id="矩形_1020" x="-1166.994" y="-378.994" class="st10" width="3" height="1"/>
	<path id="路径_394" class="st10" d="M-1154.287-372.701l-1.273-1.273c0.367-0.61,0.562-1.308,0.566-2.02c0-2.209-1.791-4-4-4
		c-2.209,0-4,1.791-4,4s1.791,4,4,4c0.712-0.004,1.41-0.199,2.02-0.566l1.273,1.273c0.397,0.384,1.03,0.373,1.414-0.025
		C-1153.913-371.699-1153.913-372.313-1154.287-372.701z M-1158.994-373.994c-1.104,0-2-0.895-2-2c0-1.105,0.896-2,2-2
		c1.105,0,2,0.895,2,2C-1156.994-374.889-1157.889-373.994-1158.994-373.994z"/>
</g>
</svg>
